<mxfile host="app.diagrams.net" agent="Mozilla/5.0 (Windows NT 10.0; Win64; x64) AppleWebKit/537.36 (KHTML, like Gecko) Chrome/138.0.0.0 Safari/537.36" version="28.0.5">
  <diagram name="Page-1" id="NXNNtBuBmb74eAabsmrb">
    <mxGraphModel dx="2328" dy="818" grid="1" gridSize="10" guides="1" tooltips="1" connect="1" arrows="1" fold="1" page="1" pageScale="1" pageWidth="827" pageHeight="1169" math="0" shadow="0">
      <root>
        <mxCell id="0" />
        <mxCell id="1" parent="0" />
        <mxCell id="PvSx6Jm3aXQG6yqBhu4d-1" value="" style="shape=stencil(nVrZchw3DPyafWWRBM9nx/kPV1mOVFEklyzn+PuA2XB22JjtifMmrxsckMTRAHiRD98eP319uET/7f3t9deHP54+vz9e5KdLjE8vjw9vT+/610U+XuTDl9e3h1/eXr+/fL7+++ungRx//fb6+1jhz6tccFWGUPR/XX/o1YX+zy8/X/HPTy8rvq1475pn+BYXfAsuZ4rPC750FxPVpyz4nF2MDF9WfZKuQNdPqz7iXQkMH+uCj9Elep6+L/hQXSTn6fH8Q3KBnKd3Max4/WJleO8XfHWJqBPn5WzH6QpZPbkuABcCb9O0dquzu0rOr4eTXSC2oJsNHvCN3K3+d1/XLy4T9SU4KXCYQvQXXR/x/37wGN9dW42n0ctKgs7Spvcf4+u8nRu+Ef2zd90jnpxP1ttH/SlebTGi/sS3ihq/2S+53xLncjd8IfZT0lT3hs9s/eryuj6/36qhZtW/0POvEYNbcYHh1T1W/fOMFsf45gK6ry/EfdUe1v3G+cMxXtBfgusktrWMwTnQWNjaDB8Tv0W7Q3wPM5jt8GT9LvN6tmQxHfoYn1xG+ywMn02yCDQZqQAE0JDnFR4LaEADgc6PSEPEml/0jisTaM6DQKFGpwIZMmqjXtM7RgkRahYq0NcvjEBM4lDwJkvKiU51Gs6OdmTiCmoaraGAsJtTV4FMrNGDO0OEY+o0OjZ1djGbJipVXa+igCebrgXzsWjEZwFMzB6UvbIIFpAhSHGdh2zxKMD4meYE3PQWpY4F1BDgWDUtkqyjWbCBgEwnvJdm8eLiTLz38nhZ44wyGXZKqZljDbQqSBmjwPgCEzCpWffAYrFaf2wowAqbYWpGgLFNvaZU8R4Y1R9bhD0kF7kA8DtVkhEMFQDj02No5JQkICNJPEEMSgsCnQYBMQWRmmM+EYCKrtHIN1RabUldKhIHUoG0+kMp0xzvCgAPa/Nm7gqsm9bAw5iAmDJTuRlz0QOBRvOuVWkU4vyUIO8q3Tr5ArBVTTGZOZCx1pHEWL3jMVErwWEuGpW8rPlBEzHLcYMAr3tQcsAotLKdElAgMe7Q0YFUIJNNB8PhVIB2IAKy0CFAbrphpFR8ZcaKKXHHh+40CaxCLJ1EJHBjA+wSkBYrnlFKE1aVY7KuRcCE27d8dwffTU+NJQZNTGB0hfLPOJPADs/6EBGpoeJpH8Ils74wz3fN6M8oj2a9jPhKzjPNMLI7z0jXrx7xjThAmjFhd7+J4qFsUzyra7cs/x9jhEzv2OGZ/oLpafgXtbdu9GHZKc6O7T5AkPPfiNYOz9p8pnTR82xEHxvgthB2Dw8BrrpC8HF2SPc9ccJAlE3D+mUS6Dt44LLDX6h/WX+hvPEH8aatM/Bkv6PrABvI/MKyyZJ5tnruZckAAol+YdhcRgFhd5xNkJbZ+zgWqCZrBB6lGzYJTvjQuAcQ4IxrCEC/knO6kerXYz1hjQcCnJdalU6Yr/3CCbceAj/E3lVAYKTE64NbF31fgfyYQDq9B1tFcQEwjVGnsU3Xg3YQ65UPAdN7YUF1bBqanZFO6gZ7XwWUnmfGMwXDzJgPsGq2YtSInKjZJsHwcrKHFJGMj3NjqT9jZ+TmIfdaKWDeY6hAgvEYumRzSkwgIb3We6D9I2OtKsDqtBJxD3r3LMyUPPnxrh3EGH+pOHlR40u88Qdl12jWEFuqYtpBQjNQLeYLibLm5rFsUQFGg9vWF9y1FiMbn7bZAd4J0HlBNC0t3gkfxAVUKjR6q4AvuGk2Q1KiAM2a2LlKyYSZOov6ewLocUJ7kUoUoEkwBsknxwoVc6FZVJkF+EOIlHGPRxjrPXQaNBSPDarZKTm2pD4Lxi2d0JDRCpoqbysO04amH3eFgCVSoRVS3bo4t/0yVjImEcAOKV+tYuZmnlL6qs6/KqSk+mR2DL2vEGgytMNptSHGk+z0O/CevB2vB971t/N7FWDtuJywsgqBtrI0GeKmA+UY44mDUSkxyiA4Qw58MDemaoICbHKhIbfCVNvTclJzJRi3CrCB5825dtGC9cs2crrVGTPGHuMF37HwdxHNPkthpVtG3+SrRyz02kmzEpQZnkybBeiXwgcixvErHYoKvrCKnOkI5kvlXpRlHz2Io80IiBLjwR3Fg+2cPOgTpLMnDwbFNLP4g8SE53/y4DHhpFLxJ/oYfGNDDfT2rgUCxWMztJ3YA3Trx4MKuj6OTHhzPB7oz/HAPE70MbXEyX7jgf7sPINpXvP7Mg9OT+zhfzywPcHrH7fXvF+enp+vj4H3/4+vf/Wn68th+fg3);lineShape=1;strokeColor=default;" vertex="1" parent="1">
          <mxGeometry x="203.25230246743195" y="531.6150356195885" width="129.89175347697915" height="101.22792849274947" as="geometry" />
        </mxCell>
        <mxCell id="PvSx6Jm3aXQG6yqBhu4d-2" value="" style="shape=stencil(lVrbch0nEPwavVLAwADPjvMfrrIcq6JYLtm5/X2GKKwOPdre+M0+mllgrj0Nd/Lu2+cPX+/vcvz2/fnp1/s/Hz5+/3wnP93l/PDl8/3zw3f71528v5N3n56e7395fvr9y8eX/3/9MCXnv357+mN+4a8XvRJSnEo5/v3yg+SQ07+//Pwi//jw5UZeQqubfO6hdiafyy5fQyffz0H7Li8hDSYP+88xtHYun0Idm3zqoZDvp5D28ybbP5G31ffzJglSmXzJu3wKkdgnhqybfA9dmHjcj2u7J9YxcYiG0MhmUij7YWNQYhv7WAbx/5Z7U1zDqCDOLGmGg1A4fnhbXjE0Uxgkku3P2vZQo5Fm+28NjJmJvJg1FeSVuFbq8s2rPMssGWFkkB/EPkVWoN/IE/uXFsR9n+y/uti0BQuRt1QvIN/Y9zUktI8S+9exCt/Nfoi8WmLv+y9BiP21B1WQZ/ZvJehuz0r33yN+X9cH3pa3+NzzpYVK5EcKfd9P5/IVS+GgpWp0V5oTPcCw7+29IhXai1J09W1Wf6JhS4CPLSjixSF2J5iVCjtEw0NICZltydIMwsh6AslLU0iyK1RauEwh7gqWqoVE9lxhr9S1hEhSeZ5hP7Qla+eHBthh2RpJqzE/JEiGxD19BMKhUFa9OVOA8FZrWMysfZW3I99iSHxLAxJUaEebCvuhGy8ZFt5xT+lm4chiaWAN7ok2ZVPIeyz1Qqv2zLi9CnfbknKF3XHDMBjPaUAtQ0K52NJ+BittrFNZtJbdcTO6mONqKBUVBlshY62cniEr9B6kOQWyQs/L6jcKwtpVc1Ya1KwtL7hyo1CJp9X+XFFBmYL3g7UMhjhlIcCjP8QLjOrmg7knhmLGqoyHgtJTTwXwnNDYMAUFR0RupgO1HymntGdpRuRmVaCQKmB2VahkGoScQSvWmZYoeLbaCwmhB7w5iw3oKHaqxrbUFxq8aUGsUVu4Aj63JsdakLUD2Q9tbZSmXMQcrccMcaYAWypjDUFnfoCOUjr3QwoNFBrd0rTJ7oeiqz6fjQ0VzlDpBF8KBp/9wjJOXN+1UaiSLYmshnMoZNrkDAmnjAqsGtuoADldEi0znlcwhcR4ETetGqxsbNw2mwgqZGJWU4D5yhTYoVNe8+MBjY8R9kwBIJkpKOMvctCKCgxLTwWY0TsdEueWBiqwqcmshBRMXxDq1KxuBQa+TQHmSml0sDcFKAJTgXFmZdWImy1RT5dlkxsFBphMAWhCU2AZZwo+NCg7VLApmkJhni6YD6bA+JhpJeAP4mr1p37oqHARGlqcAl9BfIoyTwsOEIXjJcuHHtFKjec0sG6mIDzjfE5fbKmB4zol3mZdctEqPKeTT1FuVuhxM+O443p1CrwY/6CCYvBJp110csHpR/xgPQ74JRkUCVgXFZfTjFGTEqKjThhuFTe9zi5KIJwhC+BMS6aeNjQDhy6ZjruTKAEFoT1OHW1qm6TYW11jL6uJnQHd4QgmYTA0IzNblMLQJiv6b3ArnS0Fuc2a6bWKbQnuJmql6N7mESgC9SC1zrA3KNjclUjVmPMDUFhC88ETzHMAZhOKG9nNDJHNcXVNnjd8USJ+0ILFuGc+cFjl2z3dL1ZwxXik1VfPFABrDE70zWkXCCblg5/DS6ZAR0tH6ZoCu2S00ChuS4wTML8CmpkrMIUWckQFFkvd9WlTYDC0d5yBJgvGaLiMqNIcR4m+6viiC6KvYsu6ohIrwtArsrIi63BFh1Ykja8I14q3ppPSZRyw4sDRKmVOpgJUDVkk2KnCblarhSyB5hn2FSxDWNXwZrXCw8D6DI09ljTR0dIUABnXQaGDKUB4W3+IfAUoM/MShV1xVEQzBiZY251bcn1auR/Ejfj0Xqc6dC90UpxFZV8h8+HVXzXNW3gWrQ3Zn2S4lStk4IDliryHq6aUOHmfsHqnSItAV3djQQFZj3gl0im2bwVvOfsCaGdAA14qNMrAqWN+GgfFA1NBKa43qAbwUCl15V8SKM1l/1KBs9f+JQSHt/OlBZ43szlm4JSh/M1WRRSmdKqXhHmvFKnOhwZQHMNgb7wS3stUTtMdn3uVp+NzdFwmH5HQPIUmvCDSKfR6RdA4jWJsQUhhp6nsGRDi38lnsGc6yDqZdRltW/C0qVHCxrWxNPh1FbKRVtDZhYG6BlApsa04FM3iRuzTHFdzXGn8T/lM99Pcq6RMH60ojlwmz9hadbylUP8q9gqTZ/3RoT+TZ+FfHWPO3xRWR2fzZ1vFXRIIJdjdqyoROi8WvDif9mcU0BvxwF4x/egD3Gt5+8fra99PD4+PL4+Fb/+Or4Ptp5eXxfL+Hw==);lineShape=1;strokeColor=default;" vertex="1" parent="1">
          <mxGeometry x="377.5668897615317" y="522.940535111723" width="131.73504428354386" height="118.99069542670804" as="geometry" />
        </mxCell>
        <mxCell id="PvSx6Jm3aXQG6yqBhu4d-3" value="" style="shape=stencil(lVnZctswDPwav2J4gcdzmv5HZpI0nqZJJ0mvvy9Yl7K4kjftmy1xSYC4FtAhXr0+3Hy9OwT3+vby/Pnux/H27eEQPxxCOD493L0c3+zXIV4f4tX988vdp5fnb0+3p/9fb/rK/uvL8/e+w88TLnvR2FHB/To9aU1y/fPk4wnweHxaAdRJKzOgSGuXASlKzDNApeXLgFglpBkQpUQCyOLdDPCS2AmKJ9QmgShtgNpmQJH+9yKgiZ9vqSZpRIekoiBSkEB0UBVfJ0Bp4ohI2QCzDkUlp8uAYoYDQBjOsg+oUmdfyk0q0aF68QAo46L3AUG8nwGZ2sEAabZDTpI5IM/emoM0TwFFZ4AXV6jSddZBGwc4SfMtaRnXsG8Hu8TZNcxZoqOWrvMtaZRMTsgWoqCDRRwxnN0JnJB4xJnEf+26ALI0AkhV0hxAySytBBCGIyyAIJXFdEalk6cRF924kwE4p4VdQFBxACgSiR2CkzpnPstUiYSoL5i9YxQlt+RVCojkaRLwSeocD6FJYiekkasXgCnNAWEWKSz5/CJgtnSINGsYAFJlsEzFRYJk7C2m3wHMdvDm3kyHuDkh0VTpvRQABFqnvZMw+5JtEYgOFStWEyXOXUZwLdVECitXuLsVSMYyRiQubkoN5sTNujoaNm6U4vNylk+9xArLPWMX290dUdWqdsPlrKJh9Vh0v+Q3HoVn25tjZsX1RFm/2HF1OcRtLC4qmiowN7bamGB9YvLnrTzvJESP6zPhOD1wUf7C9nfo+EuOvxBWpeByUjF0GGclDbGWkRt0zUJ2t3qIsmciu0M2Z6YiwrhBk1ZRSGO8BVjOkr5xW1TVk+WWfVFVx8i0KHoBjUI32NFqPbv4gJTP8fqjmC/dCJtLUZLQ61lt6FGIWSeyrPCf63s9Bh5DKbG9LvP9Ky1WZt4GvQ91/G1SbpQlnSnOutiyA+qgB+tyznpctzkhDQ6+D7CqBSdwStIBcAInPR0ATI/Tqg4AHsaJW/QbLmnUkI0OvOTZ77plmNIBA6fTW3ZCQMNF3ioZg4eCYRSdAgr2VrYF0yFtumjbwjNyVUZeXjUyzNLWPkIRTm4kqH1AG4Vi1YwVkiCzoqWt3VOWgAPOfKyhZPHQpxmz8yXevVVFHqeeJrFmFWoOILs3Je7dFOur8s6nFXRvLZSdNbMrAOwJozduQ6XfmX/YERAQfcLCtG7YyfQZDgk5A0QQKfNrqqPLXs2hWOrrE0wYKzU63mubUYD5I9OhT/820zrGG20/ULo0WtLt1oE52pmRTRw3LVlNtKPUzQCxT02J0hrGuHA9l2UiRaQ9ffJLfMl08DCMjnQIas4M7ZPZnvHxXHfm42x6XReeuZrAJzZxdDsje5Y2qsN+tM/42SDXXhcEMB0sVyZFQGWAjDHd0wJrcxJ6awcQ1zjPqtcA4q3FYWO3ym37pi5YIfoRJLtmxVlx42kjR+xhGp+oW1Cnzb2yBu+/v//8A8B+nD833R8fH09fq9bv8fOUPTp92orXvwE=);lineShape=1;strokeColor=#FFA22A;" vertex="1" parent="1">
          <mxGeometry x="327.6871466776854" y="426.94193153672404" width="14.560270617991137" height="307.4700735007625" as="geometry" />
        </mxCell>
        <mxCell id="PvSx6Jm3aXQG6yqBhu4d-4" value="" style="shape=stencil(nVrZctw2EPyafZ3C4Maz4/yHqyxHW1Eklyzn+PsMsgFNNJbNKG/SEk1i7p4BLuHDt8dPXx8u3n17e3359eGP6+e3x0v46eL99fnx4fX6Zn9dwsdL+PDl5fXhl9eX78+fb/9//dRX9r9+e/m9v+HPG64maamjvPvr9ktrksI/v/x8Azxdn2dACTOgSqoUkP0MKBITB9QZkMWVd30hSswUEN0M8EOq+4A4RNwAKs4TQBA/q7U2CWxLKnFWay1SCKDY++Yt1SxKtFRM6wCIkonQJY3HGyCIEqFLFKczQCUTSxcvsc0AJ57JsGl9AEqVpseA3KTOljY1ZEcAVcosQ8kSiNC5DBE3QBIlQucsNc4A0xsDpCHiBgjiiGsYQPMM8KLE0jmOkN8AKhopAO3gxLEvBGmzpU3RqdEv6OytprdG0kzfEnwhiedbqrOW7JfIXCNImg2XdTjLEQBlcKL8C2721sRza/ZSZzukIp55q0dvTeZdzJe8pNn5UpTCXMNiGrZkemNC+1ENNoCnaabLAFtyEtmWFrXGSuuDASAJxCyeyRDRDtFewdw7owxRuQwV1RoadW8LyDQLHYoo2ZLliDwHUEi0ZFnaCgDgQlsmdXMAhc1ZjkpWmEM0qHj2hYp1OlhBYWXXoQy+UeerflTlDVBGHjniGm7eks8jj9wHFCQnPtHCbsziX3a0ASzbEhmaGzliA3D6Y2QHMp9Xmio7nZpl0EbTTAsYQFolkNxqDC/DFzLlrQZos+HUEhkpuy2NErgB/ChiRwAPAJXAtJSGM2+sUgqzWxq+vNGl8cUjkSuURGlsPxHDLQ0zHhkN9hNHCjlyozbTjDA2eOTYCo4tlfhEb03mpKrU6YydhgDrM3m/JTywl8UFKyNt8SBJjOj58Xi3nuwnLV2J0sYqLv5jCiCJJcTBfHfryX7MPBhilM3rUvmV+rMf2t4tJ+Gig6fslhNvVmxelHLmjXL8WM4aQofs1FHXd8hYHCVdDommo02OQ/LhRmt4oBnIa260ngdmcvj2QBTpsR1ytN8KkpflJAYjhjinipYxcTmL8DTo/M5MRO93ltf3bYZ1QIuoSpuNRZE6nOi/mYkH3+IEtpykjsXFlPbQiwMrbYjvhEej0bQGH49VDG029FgSh7kYzWJLNEWqyJJgeeApteByalXIwHz5muAdJURrAeHjoLVAOdoTrQXQUWbdCyya1rGu7o466VSkjYq0W0/009sblJdOIeO6nunHCFdCe7EZZCeAQMIlEn0agY1I6Jj/NGutoJ0bSev++oqEN9JWqzXJSHhZ6Np6HBlJZQTHLankhLG3ZRrPO4K2MK6TlmP5gIaRYA5FBs5rbROzccPpfW/MWFewNdy71o82lxVpeA8DUrrMjcKcQzuxZoCM482emU66UZgKRFrArEGusx3M9RgxsZ4dynX3PRbLdXD7DVDp/Kfmkat2oxA2nbHs4mA64+ikr3osfUE5wA3v3w2MaIdWRzzuRlKs1JeC1CAkOkYoaczqd2M1Rm/7rB6EbrQkF0VvjSdtY0PXiIGOpHKVPGupjzfZF+pohfYDVDaXrssg+2REW7HVPxsCVyw9Z2PmimnmbJBdkXml7az0PqDgOU0fxrPzgYK5tY/7ueFg0pcdPzqqSGCyjvR8OLKYtZQD7a+6883x0I9dGIdxIzFugCyNnfk5PIHIXEvFLWOvxpOAIo3s54wsphXzUvGcuPk7J3KsoJTlYKecJLKwyJBoYS8RY7pkfj6QljO/Qk9R+rgfzi0rnbiWpU5bAVCe7iGR1dOCAmnGahKLaXsMQteTqwUBGVm/YcHLroLQhfIlK+zQb1Z+EmSPoVtuvP/tXGOWofmzwS6otV/A4AcKcLXg5IpHB8ConF8iabrc2OBHqQaA4ffJRRgD+IoA2p0oUgcD0BMIt1yEaXRgZABtCGAnQXdco9FkbM7XgN073rN2Hhrehyh4eHS2qYJF60zsvLgfV6wB/OIczHQrmT5xjv9zD+sMYH/8uPb15fr0dLs1tn+O18Tsp9sVs/Dxbw==);lineShape=1;strokeColor=#FFA22A;" vertex="1" parent="1">
          <mxGeometry x="333.64106652020496" y="419.55484684741623" width="55.675480884337276" height="317.93824695547755" as="geometry" />
        </mxCell>
        <mxCell id="PvSx6Jm3aXQG6yqBhu4d-5" value="" style="shape=stencil(rVfRbtswDPwavxKSKFHSc9f9R4GmjdE0KdJ0W/++9Ly4oVRfUGBvjnNniUceRQ1887q9e9kMwb2ejoenze/x/rQd+McQwrjfbo7jSZ8Gvh345uFw3DweD2/7+/n3y92EnJ6eD7+mL/yZeYFCnEjBvc8vmGr9++LnDN+N+wu4UBEDdxTTOtwzTf8ZvHPr+BDJZYMPVACeC6Vi8JEKr+NTpOANXog9CLe2+Eyc1/HFkSSDL+SBPlXlsN/3QjkCgn7PBqwrCFBICf8EXBLsidGWKnFTEZkSJmRLiHKNUG0RpUwRZGEi2KClwCpVQhO0JsYVSIhsCZVSgLJWm7iKK0kJbLc06SaAkEmkJUQUdCbXEBIlVEuaJmu2optEQUvr5rz4b43QbEkyLj4hb2VNCTaASXW7QkzkQQdQQq62vIUiiiF3fnDYoplq08NUJVwa4toVHIqhkrcr8JWgK4kt76iNGRuoKe/E5872daN3S2NfUn11T8WaOgu2XO3KVUgwwTeWi8Qo6iVPF5ZzKHO5jeFCh//E0EZUrOn0jQNRfHEGecpghf6QKwFaoj9FC8NO0x/TJZEDqevngKLd7VuDxqQbIHSDjOIjmkzaOUkjKKB9L5Iv+EgCJgdP3rYlTZoHeNceujmd7bGC5+4I9SDH7mzepQGoPiDFnf1jhfp0eK7wSO/2oz0SzQxdvKow0r/T02uRA336fJFAeFMOCar/zan8KlwfPi8AD+NuN98fLv9vLwz6ar5s8O0H);lineShape=1;strokeColor=#FFA22A;" vertex="1" parent="1">
          <mxGeometry x="327.53755116840466" y="740.3832957330633" width="65.33127542192346" height="3.598671473860577" as="geometry" />
        </mxCell>
        <mxCell id="PvSx6Jm3aXQG6yqBhu4d-6" value="" style="shape=stencil(nVnZchQxDPyafVXZls9njv+gikC2CAkVwvX3yCyejHt2eghvya57R3LraGlO+urr7bsvN6fgvj49Pny6+XF+/3R70tenEM73tzeP5yf766RvTvrqw8PjzcfHh2/37y//f3nXT/a/Pj9877/w84JrKsl3VHC//n6SRfOfT95eAHfnewCEGeDFBwII0soEqFGap4CQJ0Bp45nXAR6fUILESgF1BuQkiQP87HR2UpUAnMQZkJJEdq1OQp0BTjRygJsAMUopFOBnp6MT1yjgrwEDoFEqB7TZaXWSmdNBvE6AkLnTxutsUgjDqz2Am8PbF/HEpNqkzdfqFyOvA/LmCY4mkAVzawhwDLBEzpJxUkj+FCM6wflAfj9HjNUmjpCQqoT5fJXGzlu2oT2O2B+XXHw+70lyahPF34+EMVXJDc5XYo+5l+co7Qw7AogYpd7TTAv2tSKgEIBPUmaXvdI7td/LAQG04kkBiyqvwRLmLAgqnhhUkbMeRIS0IgqlJUkmv5/FzxxHs4cFqYSZMotaGqSS4Xyl92khMftrHceRwhUx58tS73fuJ8x8FZWWSEAoJn2JtKqYRW72uNcllmZF4kxByRJIUKdNFpQyWLzOcZAMfb/SPCuWVQ4BhdyS6Qi81jr6wx4An2CZQXg2mtxG7DBlYYAAcsoNCbcH0Nmk6kew7wF8RgCLJXMaCnwNklhHCxh8lZcvIw66sgGoDx7rSwcwHxY9tzaJFDwDRLdxmlSAsqit9bWS0MhttNU1cQcAIM5Cg92SQ6Z78PFbgmmhhzfLOJOEcy/vCcSZhvHiOEUxgapURtwSmysfmMIzQNsA8kGKBuThoAjofK3GtGNlZvsEK23caRzCgigzKaAIM0Bl4W08AEBp9e5MRwTQW3opwPoDdCDzgY1INnLVjdOsS1uP002KRhKtpooaMO1oEfDbYuykEB7SlQcw4eaHjFqlDxvn3QjMlTBhV+RQiNm4wdJzOzjznu6GUF7NzSwoPArJGKi/HguYDcHKtLxkELZFMkllHfVzOe+pEI6Y+X4ZZ3aEcAIVRlPA+41Qpa3cJhEY4TN11/hK+Pts2OwJA/xymVoHO8/nWRWyYRBqRKQd0IZN3KKMgN0bZsEelcqHZYgfHZPV3jAOojnQdLfsCzA5SjmQCHie8bVdVrgRgNfnQIfrE0d1Ws1oj6Odsjasb47eZ1NUaZ4uB1pCwZ+oIGo2FcG+dTh0/XzDZai3QYwNdm5Toc3lzHZkDbveQQ60OkrIEqOeb+EKJr1N741EqQH0ZbvKTSM+2oYWvNe+b2VEF9y3pkSJMADsaPIyMuxdK7T6vpXmPEDtNRHGFlMdAM2g0mZmgAzqI9L0NwDozKO3AxX769H7h4qjYGeGmwRbAvuEKRb7GlpyD3gefBVMaqJsuVZwW2YA+gRrwrMPqzTfq0uwi/8HRKgvMipu9qgHbkdMoaOL1SEV/5U6RbVzFBz/8/rrAGB/PL9t+3C+u7u8rFt/j2/n7KPLmz198xs=);lineShape=1;strokeColor=#9F9F9F;" vertex="1" parent="1">
          <mxGeometry x="252.25221640316295" y="572.8945669038492" width="80.7810730308147" height="60.29809060401158" as="geometry" />
        </mxCell>
        <mxCell id="PvSx6Jm3aXQG6yqBhu4d-7" value="" style="shape=stencil(lVnbUhsxDP2avGpsy5btZ9r+BzOEkiklDNDb31c7GS8rOXsY3gI52tiSztFlD3zz+nD7fDyk8Pr2cv5x/HO6e3s48JdDSqenh+PL6U0/HfjrgW/uzy/H7y/nX093l7+fbxfk8unn+ffyhL8XO6HEi1EK/y7/qJXa5T/fLvjH09MGXylWiw8Q3ygFgxcmAfhOyT6/FOptHx8Dsb1AbhTBD8RIsViDSKVDg9KMAQuFAg2qvTMHqugOapCMQSrEGRvYO8ROGV+6Wi9FHr+5ZyDWoFHDV+jRxo1iAHimbOOsJ6wAL1SzwQcK4PwpUSoeD86jEYrJ4TuIQNavrX/SINJVfGFiex6mBJ4vxfMsU4yAlpmKowGMb1PWOhZQR/hMYvEF+r91atnhWQDt9bji8BWQsncSi1+FY0cm1vhvGNABi3vzHlWONZBCvVCzR1KxLOjOicTGmNUAJIU6NVslUq1jcIcmXomKugnQWMNcLY1FHY2OxBRsnGunAALR4sizVVgEF5DombD4DcShTVTuAktO1dTsNtIBq4Vobli/9jo8fd0gU7B+1WwR4KbSBt1Xg9XT1wVpKpyaLRGEmrUyu0DkkV7XJbX47NNQZ5DfMXnNrvgXotds7S2QaARfNhUfIJ7n5Aaiuj5tg0eFf5IYzZMMYqaJav0jdajyDj6LxzNI7OCpJjKq1o7/c/f4CvyTKEx4AaI96Z3iG4gXe+brfRM4D3vFFsxK9vmj8ULqyJM4Nurw+WXKtwxIz1M+dOrAP2lI85Yv4DxpZO8Gn1EjO77d4iFfWvd4JEFh9Kyb+6I+eRJ2xadP8lEwvno80txp9NB8yyD/g+/aFQ8HCUozH1GT4/2/8BHg0zW+owrwSXzMvoh9MCzqNOqmCK3NKGKsLZk10OpfQIoW1URXJnHjW1YKrgbacwGnqk+Sq9wBqqL6pFq3aoNTAe2r+LqkzQTigY70nPwvoP6mtqmZkPGI6wbdl1Z9RAYGy/zhalnDA0jyYq0tUgJubWVo4dos1zH5XzdoQ6w2c35EM8hUXzV/A9ptpDFDr41mg2N7X0eU1SDiS3dfMt/3I3sNvwtch5uHNvVcDbYs2vGxx6OWS/I0Howb7c3VTrMr5L/O7V7D4FCn7qh+r4FaKNVIV6PK2B5dl0jNScuDDKfSKKND2fgfLa9kSggeq6BdA3uB+EGXP6nRMigAJsfiWcCrKO8ZuL5OiQn7luzFJSc4lKpBmJaIgu4wpV0RWPp1FnJx1kyPyK3RNxc1QglWoosbzxpeIoaxndgYNLhDmUS+46WOL52KR/1L9/2yqk0A5Ol+qFY83G74AVbxaH1Sxwpw+3xUyX0/u6wi0FaAep/8A54vfie7+B/cV0ajsgkwmldkrCS3GYRanU++O/gYrx/eX1Tcnx4fL+85tt/7Fxv6r8tLEf76Hw==);lineShape=1;strokeColor=#9F9F9F;" vertex="1" parent="1">
          <mxGeometry x="383.8498449810538" y="570.9364021396145" width="72.70111637759032" height="71.80012966684217" as="geometry" />
        </mxCell>
        <mxCell id="PvSx6Jm3aXQG6yqBhu4d-8" value="" style="shape=stencil(lVnLbhsxDPwaXwlR1POctv9RoEljNE2KNH39fSkYclakdxLfnM1wJZFDcsQ9yM3P+88/bg8x/Hx5fvp2++f45eX+IB8OMR4f72+fjy/66yAfD3Jz9/R8+/X56dfjl9PfPz4P5Pj1/en3eMPfkx1TzMMohn+nB5nK6cGnE/zh+LiBJyppgQsV3oc3El7gkTjswzlSjgueqSB8JQkGX8s+XpevYvAdnFb3n5Ldf9zHS6JkzxuRNwNJNngB+0+Fgn1/kn18Vvc1i+8AX6mIwWfw/iLUHB7svwa//9wAPs/tvuIRH2qnVux5QbyaUFj9w9QqwFeK634CNbCfrnTMBh8QPlk+BLif3qY7Jr5TRu/vjg+BOiCEGvTVoSJUwY44nE84LVKDMRtL1MVgsAqQSA3qSqKqYUFe6sRr1DSOCdCuV6rGrWUG/rJBpmDqVngj0jzdeF6iEYNUa43CmmpKFpQ7yu24GrROCbipNoorOVomQQZKBWMQYTkd6W8MtECBUBet72IN0BlKdFvCGV2CdaueISRQIguV7gxApHO0OTcOjZqCEoGtQUAGQrKyrwVYBqTZsq0GqE9JJs7WIIHAybmPbQwaYOvotNEeuoLSrcKjsY2DgENraedkDdAZuM0wbQwKSFFOtnu+9pfLBuzoLZSxnKoWH1H/J1m5WtMk4466y0YM9plPl8M8u9+51jMs3WJ7gz4RsH+PD7PQ7uDjyjoukHVi27OGEOo1S1IVrAnlvm08GnGkp/Jsxht8RfrLyVktwEhPkawpwHkmxQ7e+qdCuaD/Xf0zrhdg/9XJxwT9U50crFifUjfv7/PJDj6u+xfcbvJU3xs88r+/PTHU73Jh/zi/xPkngfjK7Csb/yO9HK1UG0UV5iM7/uB8zOv7lZ+w8xEb+R4nA3fwxp8jv0C9zS6/eFbIHf7kYPeTkCAiNvUqwXpYLX+0vuF8b4YPAYrMa/Ftqrczn1WlIp1s81fVVEf3e9cgS4INybfgkimiFVyTL3gA4mWEGjTgIy9USoZF1EuhUmZevFNsqW5OgNZezpUKz+AFY2lQJXtJqitUcGgvetUgIh3uZLV6CQXOC3c1EFAsxtUgX2UQqfnAAbbqEU29GF4CK+gFyghAjQMSCKr3jFv1Fegmq5dAw9aqLQ1JUrETgjc0pl5k25pAen2HQ5Q4NfHmLiGAGnobr2aFjMcoxepMLTMBuFVXMIUyddio/JZGDuIVrFRrczb6zlHT6J1XzbKG+EUGflgmsLb6aZy2Q3Td9+O+0T9Rf3PzRMYDTj+w5AhvXH4iOgxQXXIj12GAKp+b6Q4vXTU05giLgJ9Kq0F7Y+xtVhB47xpzdWeAuMRusKMG6NDDJ2ttHWxFZcZJyQSlc7YlQNMHSUmelX0jbSOaJsxu9k58mFV3K/XAfsL8DrPB4/dbEmUoPcMFqcrw/cGcF3POjY1V+yHp7N8fYAV2+8eNM1hJVaEEc94vU6m/L7gZyvgrv9G9Cdcfr58D744PD6evidv/28+H+uj06VE+/gc=);lineShape=1;strokeColor=#67AB9F;" vertex="1" parent="1">
          <mxGeometry x="169.50740475643374" y="585.0764810188093" width="105.5915763092994" height="25.522568986340502" as="geometry" />
        </mxCell>
        <mxCell id="PvSx6Jm3aXQG6yqBhu4d-9" value="" style="shape=stencil(lVfLctswDPwaXTEkwQdwTtP/yEyc2lPXzjhO2/x94GrkBGS1bm+yvCAJLHZBTXz3sn143kwpvJxPx++bX7vH83biL1NKu8N2c9qd7Wni+4nvno6nzbfT8fXwOP9+frggL08/jj8vK/ye4wpVuQSl8Da/UAr5z4uvM3y/O3yCx0jaHF4ox3V8CiTB4StVBXgljg5fKJV1PCvV6vCZWNbxJVBSh2dqIN8ixMnhEzVex9dK4vERnr9lqr4+gUJYx0teyvexfgHn10wpe3yiXEFApewJjo00gQDpK5oaMSiRKhVPsZHYQM4xXGtybQpjDVTVtmh+iyqwrJZEJwMJpGiH1h9JjWhU10ziG9WWEMRcGogIuDc0UAz9FgVQJ8ZsJ/6wyOnvAZU492WKgGspxMUT0aC/WED0+ikmOHSk0hsACzXgMJaDsu/XSgVYhth6vkqmCOR51gnB72CaQyagTLkTaaSKJFSWmlwDCg5oi8tdk2YSlINS9ElzuaVq9cRlWbprLUC8b1S+tUPX3s3MtsGkqz+SUZmQgKyI3jbMDSOqElPqBKSw+Uxf4kVtziPINv43QNIwoG2igxzGCWQKiaBbxxFnQ0lBWccZKgwFNA5pyyqDHcZbgERqoDXGa8bF78EO4z2mKZyj40WpNXzT6CeQ4SM4Ue4zaLhXmYInoTEUQyTx57ERim4aoc+3Ys7CIvar0Zv1w/W7gZutPoDiAW9zQSG+Ow9HOG2HfG/cJGNvdzZFKurpni8bIgrWH/ohhmUM/Vu/4Yv/Tbg9fHxjPO32+/kT5fP//TeJvZq/Z/j+HQ==);lineShape=1;strokeColor=#000000;" vertex="1" parent="1">
          <mxGeometry x="204.79598998700612" y="577.1896927660241" width="38.8230660792085" height="6.5245441549852785" as="geometry" />
        </mxCell>
        <mxCell id="PvSx6Jm3aXQG6yqBhu4d-10" value="" style="shape=stencil(lVfZctswDPwavWJIgOdzmv5HZuLUnrp2xnF6/H2hUckatLSZvMkS1sSxWICTPLztn153E7u36+X8fffr8HzdT/JlYj6c9rvL4apPkzxO8vByvuy+Xc7vp+fl9+vTbDk//Tj/nP/h94ILlOIMYvfn34tIZXnzdbE/Hk439j5RDhbgyAMAJ0rFAESI/TZAEokFcKZatgHqcc4WIJTSNiAGCskCPAlwKTGJMwBfqcg2IAu5AcBUgEuFKQwxUAAxV41QjL1rJ67bx5aR7hClDOxzO77ZJ4oV2BeqQ8CBGGSo1pWiZXCCd27MqegRKEeVoo05KNtRkgpFbwARE6kmqrZ7kqPIsAzOdk/qXFwHMNVqAfoXqHCenI1ByYuyVOrI7dgbcB1QyA2SUSD3SiaxMUhpTm4C7hQgAI2ZXbLd4BUQYNBs2VehR9VRtfba4B+UzebIEeP2HLjtmsxuEs9WWZmNeFfGdvaeAm7PaANQj1AJ1tpTY0A5UgWwPgVPDI6YNYYtUx2cVSpicQBoh6O06iSxMSRpkrApw4NMRhzDZwElkbMxqGKgaZhLY1oHaBoAINUmKA2QGfazCkqw/azjTgD7dN6WdAcAJ4TUdLoDAtQkUcUYYijkAfn4TjEKHtAqKNXGoJrAKOhRMZTvcIuhZJN601HrMTeF6wcU2KHcVpxuHykAbutKZBVgHi1g8rimQD2jEa4YrhWol0w1B0jSnb7MSxbwv6+lvQ8SXKncyDmd5YjVvn3t4hLaDrSRf7adH/GuIK06XR7xEPzsJv+xvT78vza8HI7H5dZx+328Zuir5Yoij38B);lineShape=1;strokeColor=#000000;" vertex="1" parent="1">
          <mxGeometry x="204.9709879329955" y="605.5752982386055" width="38.212317978892315" height="7.43977983349032" as="geometry" />
        </mxCell>
        <mxCell id="PvSx6Jm3aXQG6yqBhu4d-11" value="" style="shape=stencil(lVfLchpBDPwarqoZaZ5nx/kPVxkHKgRcmLz+PtpsdoIE2y7fll01klotjWYjD2+7p9fthsPb5Xz6uv25f77sNvJpw7w/7rbn/UWfNvK4kYeX03n75Xz6fnyef78+TZbT07fTj+kffs24QCFMIA6/5xc9ksjfN59n+8P+eGUfKWRjXzNVRvatG/sixHndnqnaeDJTA/EkEhuPFOK+bl8o2Hg0wlpA/IFKsgQRBxB/pmIdKGMo/kyxGPtAEfCTC0n19mndXssTvH0A8ffhfhBEHfJzo6BYKQFE74sARskSNQQYFR2aSFQaADBlMYCmRUAe4hLxACRiAGjdh9QKdSA7/cxWRq1RrwDAVFwOHXqojVq6AWBlcPUhoVarfCfpCnKogZgtQKiDwpW+sD4AgSroBgVk66Gq+MA40pD+BTAAOkEQS0LJslQjZkk5sXVQnxFpKVCy/aBZJaQl1Wb0gA56ulUq7HMQQKsOAbHiUxre6bhgC6c0FORB5W1zqJoDAsRFzFdaYlCHaZA58RU4WZUll7T2Q4oAINRcA3XYD1rp6A5bHZ6AViUxRe9BQEhaJrYeNKsMklZtVtfTCc6lSZuuDtoPuEXFhqSTKoMW/TBAxVys+Iqe6YhWPdKsNPL4i7VRGe3UEFlG231Ap2Zz4EH0/aSL35N4iGVtb8jNA+BiNWb1AKSF6PuA5BtIGgmglW9OUT2nGQGCPxQLDil2f2RVvO0pwK2r0xxB623z61sXDKi+0j0vb+4DtKftmOn4yIrJy7s3qmAIRF1/XA59ebO244qtw9VWd3+SUUjeA2IpL0fmlb2AKSM39g3aM0WrC90Z0RQLS7RXRWNo78aqqgIdoB+9Vb1vrw//r3Av+8NhvgFef/dXPn01Xxfl8Q8=);lineShape=1;strokeColor=#000000;" vertex="1" parent="1">
          <mxGeometry x="229.83922089238285" y="513.4036108143814" width="22.682741111596442" height="25.7507241614519" as="geometry" />
        </mxCell>
        <mxCell id="PvSx6Jm3aXQG6yqBhu4d-12" value="" style="shape=stencil(lVfZbhsxDPwavxKSKK2k5zT9jwBxGqNuHDjp9fedraGNSXvHyNseHPEaHtro3dvzw+t2k8Lb+/Hwfft79/j+vNEvm5R2L8/b4+4dTxu93+jd0+G4/XY8/Hx5PL2/PsyS89OPw6/5hD8nXJASZlAKf08fWpSW/n/5epLf717O5IvoZORrlKzr8k3Unj/p0HhVPi7qB6BE0UIAWSZrUcYRnQCq5G4AGmQiLsQuRQ0AX6a6DkhVpmYAkI/r8jlLyzZIEtq6/BSk2vOzKJGvSbRaBySRkDb1SQsSSM765Ek0SSPn9y61WHsQsUwyEBYDBgLEisRlqGjWZbCiEF7PgGh5p1JJkgFI1gkwm2UZUUqW2RUabgCsST1IZD4UKdakrpJYlNTXDnRGZhKYZ33oKHACaFWC09CHzjXuBVsLZ8m/zu4uMXgVygBlkG0BgH6Er8hTsA0AkU5MA7jmNKSR/DWAWg2tSyBxRUlnm4hWpJMmVtEmbddDpBPhd63SLfswGZQUKX5X50MQJU7D4lo/BQB1LoYVmw2Iuivqj9a2VkGhXoSVaUC92EzPiWMAnOcqKNFm3LPP9Ew+kumO8efqodJx1Zon31xALA8YN5ZLt2p0TmzzKmjJTaM1njcaVnLopdYmpCaQNQAl112YlCYCgORaWaBj+jqAm+QKAmVemUlZigVgBmWmAeyzdJ2nHPOhXJujpAvMzdUC0kKv69RI3ofYxghYi5Lr91hPGL9LGevdAkgjDNf3seDnKAAsSopeaX1QbLkMkEd3X8KKHYr0e6yo6taTQnestPxeqFGlkTzARbXUQA2yxMXqM90mGqU4+bV47jxs7UOju2iubHmIYL+bu2HoXLttuE6G7slaX79YyVAOxCKsP+nifMLVPKbNmQNsC9WxEJ5FqLHrlV99kAJ2HUMluK1hkk78DX5TwvxkW8bFXo8Bzdb0z15Xb8vj4eNu/LTb709X6/P//i6NT6d7uN7/Aw==);lineShape=1;strokeColor=#000000;" vertex="1" parent="1">
          <mxGeometry x="455.80917069358907" y="500.4077103662976" width="24.114255638643044" height="30.35917249113595" as="geometry" />
        </mxCell>
        <mxCell id="PvSx6Jm3aXQG6yqBhu4d-14" value="" style="shape=stencil(nZzZkhzHDUW/Zl4rcl+eZfk/FCHKZJgmFRS9/b2RMa7qrovqU6bfhk3c7lyQwMWS+ZZ/+uPjL79/eEvhj+/fvv71wz8//fr941v+01tKn758/PDt03f76y3//JZ/+u3rtw9/+fb1719+ff/3778syfXX377+Y33Dv95xZWt5gVL49/sHY27l/ZM/v8t//vTlLB/O8m3LheTrOMvnLUaUnyf5buNJOJ7z+HvdYkX5fpYPW8XxtHqSb3Ub/QfG3+JWGsn/d3a7fO1bx/mm8/pX+4bxWj5v8zzfGvH789bP61nmlgPJ1/P6lLZNlM/n8Ze0tUnyKZ7k89wSrGfed/+Qr9sE/Ty08ZBPW0X5cF7PNLcJ58Xkz+uZ+hZgv9I2z/pjO55Zvp3lw9Zh/CZ/Xp9o+gb6n/bVO+TrFvj7z/ONaSv8/Wf9nzh8W86z+nQcTd7PxqH9+/a9OoznzbXTALpctz5EPIBq9i3LVu1n7VJ86klPaKhi3OIQ+QSDj24pIypCLLvdeMgnWPrYtnjWBFNMMMymh1nlM8mPrSaRjzSeqZYtsCLHLVSVh/VMh914kgdDa8oWm8qDbnptC+hITd2Kjj+Cdpq+iSW09SdHcWznQ76SfPLjGWT4i+ozO1Kz80PlJ8n3rZ3nm3aqci0/1bNnXJ8S1XKWXaGu5e18TZEnR1qGYwL7F1wbq7i18/o0dLy1qqfru3W8lh+6XwOtYbPtF+a5K8i1fNbzOPYNvJa35YsqD+e9NT2/A4lSG348g+Tn/t8PT5dA33pUezX3CV3LZ93fGHBBjSgLFTbAhB3ufTfIByCiCerDHUkDwBqNsKWkADKKI+5n8HkOsKojbaMqYMAchhHurADSu1HVzq19gINgAVRrCshADEbfDcPzL4CpsJAuRwUQy5pBffHNss64c5NnAEx6JjeHiLx4Zkdc4z6ra0Dd6cATgAz8PALZJ8CgOYwtywHKu7JcA+au/U9kutGQplJGYzERzsMCnFdpBVBgBAyQJJ7paCYXQAKmiAfoAlAxgluA8z6Yqx68SkU8bdx99SuAWD4LWokbTccdzfvebFw/b5y535tfGOLN6x45vgScJ70cMKuGGOMW0UHPqQ60cTi0AOchmU8lirQAklwxknUzpDPAvF7kVZL0R28YJSzAeZXMidGkYwgaRw12cn4S5mMosljKdJ6EuQyMHG0VBTBZXZ2jNvuc6QR1NX1mn9GjNF2lWVhdi056GXQakhm6qQAcUlJrPDm1Nw8/fgAaDmkMDRkMQMlV29cLwA3Z6AqgqNlUTfJvBkg0B0e7F4A4XNS4cAGI/1jc6IZEytenOmoDVCaukrSenDYyI5GHAigr2IuaDQMQFTCA5AVnYUDeszMHIKAuGUDjGYtYOIAoEjBVTC0v23vW1hExRdVdctCMK046uWpA2R3rK0AWQMJywMr+dwXQkMxDSYLZABSitL5boQPAiYnW3BwiZkpa3S3pM4CGlHfNeR4STTrtJ/h50hR8RzekhPS+Hcm4542DE1ePaP5548AuGSCJZ6/ITmp3ZGPsRPMVQFjiYgKgfAsg1CFjxFG7GoHlMWDjLoY0sVxnAKnXTdZWA6ipLDvhvwa0PVZ9NpW0D8U59oFmpmbNRC1+Q6uU9EyvSI1yY0GrXoujUXJvujlMDKhL12zgE9G8RjTNzz+I5jWgapC/QgQq/Watha5AigAuBbpCNaq/BE22TFbXPBzZmJgVyF294t0v1D1L+jwHWNacNa+56DhVCJNGo3eA6I7cxBphPioRz/pNtQa/rAN1aSUNugLoQKTmhjS4Dlm24qxApzlk9VnLCnDBR9jJmjQBglZkFgDMRpxbcHMgRx27pkImJ8ljcwdooDWOVas+s+NOx+xCxWPvrwHJRRwdlW/lV1080Ci9ufvM57CMwgEtbKy4D8u8Nas8zbho4tHkqTKWNM9i8hlcblBCOQv6kuBOTkE7H9zBKehvwxZdaE/RVdip41PuoMCx8fIJK2PBnbKE+fSwZ0ifKA+xsOBi7oj7G5xjjhijB20BmRHNe3RGgtOfUdOli+LRgXSUMKEXj8rMbX9JH0w+qTzRCldruEklRcdzCtqTeKHPFH+5QuY6jygvIefkSq8rxsyC6xMcm2VGHlwqImO20CU81/7y+ZXxcCdL0LSCyRPzDRovmz5ThS5oy+A6Xzh+KVXdn98fknctYsv+YEul+viE61+dviVM+XWN3Zf9pJqqy30ltIfR8ybuATQKoRnChPmKWJzKZW4Oqi4+y9j2GJumUGbGZFnszmtk5k3TbXPBitAFHS3c8eMJLxuKC0pdMIWyumGdKaVK9QoLnG2sBOhaBpsF2zaSL3UU7hMK2se2ChEEiK5MULmF1geAFXueL0LMG4APYisu60WYXNGmXgTiFevIF6F+Ra98kUzg9PRKVzgAdmz5hEjFSt5FyoU9/6oaO9dMrr8GbRJcXIRyX/EiOKB8dk1aeJ4Zi4u1OLqWkD5Wl56e3OpRq0aMY3CmtmoX0Kj7IF8Czss6EtYVDCBnegTOELoT1zt2AdW2F+MPQN5bo18B5Ih2bkyqXZuhVwsbKZ9LsbeOhswn8VtH5uDLBAagFLsvRBiAuKQvdSzADxVTDNCoL9GVaxp30KyCUHVDolWaV6tEBC7oEV0A2LhHveh/BbhrCmvSVJgrGjSY8lG7ancXh2yQN78gtZF1gKgaWTUFaUcUeXHVCpIZAaKhBpBIdXAkuVoypTWkYxO/AaSdcUwuVLeLYI/akru7tbDIOu3DdNWXdFf/116ShER3RG2YNIdCunTRwxCxYeCiSyIiXxrOPxjgrtPDOUVK+pkLLK4wh82GQfvD7ZNBrYDRxa0Brfd09f/Hb14DXA5/aSu3ZIq2joHGeJUSqwKorDCdUxw3TUDdHdGMHmh2JYl3/WG+YYBb0KZzKHdNbl17q+7a6BzgrlGvayx61wrYd1p7AG6aDV3gd9fO2NXH3TVMds3Lr5ZMVj6JUOrNEe0agBcuVE/X+W0hCKVavGoULudPV8i7a77tSnRXe+/NAZJbc5zumq57K3VMF82uxjhl7KJb3YzSvT4xHHh0LBwAbih7VKQOQEMKt+JCB6A69YraHACNcVIzExsfoKjWO1aMUGZwHfgVS7bmDcTcG4Ays8P1w0RO5lzcteCGsovbHAXZ/cV9kYI7vW6kFAUQDR3RaWvB/O+6VSOAjAXDdW+nKoCow4M4PwHoiC5m7H7hx7oZH/dXX4U0VXaaL3Y3dykgRkzmWMSjR5TrgK25A8T+oZWLiz44pKyl0siXLC1il3sKNzeDzGdKcTUe9P1VukguqE8utrt9m3xle+y5pINeYTdZcQ86dPQNJWojVsO0fZ76oEPDw5m7tsNVZFbmXaVnkFOOOWukXvh9g6S5NL62moMjDNz4MzXPlTEf468xc7PA1aV8mq+/hp0xJFm3hHU85A9S1IoGF1ejuznEljQOvcac+Rp/12vzGWPnRTvO4ynIEpYDVv3BYmDW7oW6l9+v5aM/L8hP/XGk7Lajvx3dUtPbcwMPS3WdJmxsdWlu3tKojnrwWx3V8QJ+C8TJ37w1Ut2LFPyWibuxefNWSlVfdPMWS9U00M1bL1W96XpLBt9GEkKQJ9ZTi3shIKFtq0qPLfrDmoJWLgs3Zboi+Ipfcf2lkcicPfa7a0q3ch67auakcY6s6g37dtfYJwH+zVtQ1V0I4Lemqrrem7es3B25m7eyqjZe3LzF5cZ/89ZX1fSEyXfUBy2t8xMlVanV5Hvs7sGCGbARyjduhht90ER0QN/i7OGtvFCfm/E4V3oz3+JKubyermJys1+OOt/ow//xttyNvP3xeMjut0+fP7+/g/f8//rwnX30/mhe/vk/);lineShape=1;strokeColor=#66FF66;" vertex="1" parent="1">
          <mxGeometry x="77.877591981857" y="419.9621706835403" width="247.95065524493293" height="111.86480715369476" as="geometry" />
        </mxCell>
        <mxCell id="PvSx6Jm3aXQG6yqBhu4d-15" value="" style="shape=stencil(nZzbkt3GDUW/Zl5Z7Hv3s+P8h6ssR1NRJJcs5/L3QWeKZ8gNntVS3kYzANmNOzZAvaSf/vj4y+8fXuL+x7evX/7+4V+vv377+JL+8hLj6+ePH76+frOfXtLPL+mn3758/fC3r1/+/Pzr279//2VSzp/+8eWf8wn/fuPbtz1Oprj/5+0XvWxp/O83f32j//T6+Uq/X+nj1irSlwt9G9toRB+Evm4Dnx/7lT5tBc+fw5Xe3tiRvl7oa9t2fn670uctJaS/yr/aeQLRp+vzS91KRvp0pTd9ofzjuNDnsQWmv+or1y2gvvLVfrKdB+9br/pKfRso/3qVTyoL/dar/aSwRZRnvdpDbIvztOv5Y9463ndc7SGGLcB5wrZfzx/aFkFf9rSr/EPedrBP//ywlYj0V/n3reNx9qs4C3p7UGuLWwflhm3I4Y/odUue1FcewfGWPKup7fh084so5Kk8J29qODva2Ti87v2qFBbCvpUuktxJT+EQ9Dt9BjMO6Yhi7/SFFJu3nIWewlQoqtqEYcq8wtGT5UzlXLWVmd4M8WqZdkAwBvuzxMG6NXp+O8TxyFuY5tKuft63CPpKph71W0rrFlVFPgPtwaK2eK5Z4A4XzmFLQRnIInLWTGo2S5k3t8MiTwyUisq+9awMFNxK1uLHGAZ4ZWlHrjozwBusWNjdHQaItZqed8cAhmTlS/VHgrhV62E4ZwaKi2Zpw4mVIqPpwd2BcmqLx5/PmgaxtnzHQEeqdwyQO6wKljw5GUBx/RHPv9M0enZviFsEPfS61awMGay190OvJ4YObxiPFPZgSNsObxj2vKoMlDSHBYGuDBXEOsrWozJ0yrOPuHsuoCBSjrFFeUPBVGUMXd7Qtkol1+6aMsv+lS4xVK6WTiK8whja9Q3Jbg0uZwxirnlHczWG7BqJxneQeF8Cdk6TQWrNjK3uZLgak8VntI3hmr+IJeFkuFacM3qylNLVNpqFPkhyk0H644qFwDySFA77kYm/Uw8WeQL56NBSr6/Fer3DCEf18dT4rmK1uEBNuzGEq1hHwzRqfxbY5N1rn8UZwSlOXvss9o3kXgFy7WMbQRkoB1nAl1A2JQ2X6ElD2QxuYH0T67m63OjY37UHuHJiaCAly9QlKAMlLasFpA0zBorfdRzlzsk2KtVkTVt4YyCHMJ+XMnFULEStJhMfNYZMd3DdiTEEUFwNzuXKcatnhWhsytCo1O0KxBlDoWK6OcWVrYJYS9EUNI8E5l3SceLvvHSJh/WfGegNDu0zPRD6krvWZPMOcOnsA1PCqs+ybBVbCliTGYO46HvheM9QtIPo8QD1njGkH8KMjWG/6sHiSCaxuvre4ggeKSvsanGEUlCO2qNYoqaG3frd0JQhEFjVj+B+QrIpeqeifdYMbcSQtKw0BopLyYGvdSAKNVGrpAyVYBMH40z4Hu5gDFr/mJeDacSqpbEVTImQGfuzaHqg4mJR07DejhJKdFhLL5iyJlZ1vYNVWIXukF1i3zEYx3QTZvDSwWWgdKApzwA4QWeshiMgP7iOenB5P4HyogwUBKxv82+g/BCiQiGzDCQGcyCXUMgfuiv5CoIzDvIaj9rjCWad3AUoAmSFo2ZDTt7mzChijRtcho5H/feEvrjnE6QfXGEVGObW6GJ+Q7Bp0AbR6Hm6I9OmzvExaOlp9NTtxWPWdaKnpsSjxCt6gTIW50k6xVjcN20p/4g8k/bbg0Hl5IrUcFRwT+ijtC9sb8lFFLbnqCl84S9RIY/ZVVK61Hw86dFfuqOnWjDo1MnoKX0Hp6/AUJiWaRNyxAGht4fE53f2zP4u8jF6Khud/Kd//Yh+JyZLiV7tx54f8Dw/Rl90SjV4Wuzzkdk/YRw38b/S9HpXrGlw3R6iOxEj/8G1ErN/IgbfoVnvTDbUtXSaRselU3RWhFnYFWd9UcI+tHTqAQmmmYFRGBJOwoxhOBiSpBTd+M96QDINYxjScGXsMs24ZXQ2e0C6Q9FxR2PIb4LwftmI0sE4st0JPyYgKLl1F2OgufzsAR1CnSHCWJfZm2PgyXD3dwAXzcGtTNUj7N8zuL2OeWmaPWd3JEbwJiYiR+pYh+TmII5HqfeMQQC5VhDBMwaZ2LSGisv9gH1OHkcNlzGIWM2nF2+QWZu1pdSLZw/Lczq/wdcCNlw3CF7AMHODEfIsYqKQRRnIRUvTDchZ84CUSnfTDp4JVbejOJMidYGuDTEGCvfV17UMD9Ts0i6vcZoH++adkNTpkEEZqLWYsdoh2mRLlg1iVAby6Tm7kDdUzA/mwRLuJ4xPAxs3GB4cKueExwEEVMBN7DcoA1nrzZSK4ePZgTiGTDPScrSYJwaaUs15jrs0bQ4NP+FZzBeb1hqrCWZ3a9aLGWnXPL2awnYdOq3mvF2xndUk2b1hNavuLosupuEODV7N250e5kSf5rxOD3NnYMEge4CBTcOJde49LBQnDPvqDhL5rKgbrAfd3Wy8seJKh8gbXKYHyUDWFVHfNyPp1bxD5XWSrPNIY8A3RN23DTyam6WIbD/xANNac11bK0cSexZbBS2xZpM26XrWIGAMuAEQ3DZgxsr4Zm0tI2B1sxiXseG4Wb3LOEO6We5bHMmvD2asW28WFBnVvlmB5Khxs2TJX43crHHmA3p8VvPpomg+NlKelqFO0/RhwVx2zY6B5vP7jeKompk9kF+9oy4r6+BssQ3oh7Bzj53wZBcq584kD2H9hm+nBjwqgmUMpOk4dG8o7Jh2Y9MOJewMUhaV0mDwJzrUF781uPkmbTXI01aXvwopbnLOn7S4XNKwngzR4T44rg0OVa4Muu/aFlecW/ajnngnp42QpjOMxdaMzprLYkLS5Hs0XAhLqqqOqk1qCVO2oKqkCwszouDztQxpRyB+Qi91zpzo4fPF0kw8ZGpJo8niazQ3X0sMdyTFIix+URJwfX9aLIDofCQnvG88Nr5OxTJ9bRi1O118zegi1eJryagrZoWrzKgo3vzaE+8r88fKOw1R51+1oa9HTZBtR+91cFlLnFsUsGir8/imlPQbtJ9bfI0cdJdz8bWzn6cX3FoJChxbDY+zHY1Xi126oFCf0dMYJbjNIQay3dehvWENtyvYv6SXdcbFedz4bnHfXeGrhTx3N29lfbmv2Rf28H98Xb+gtx/eP+X/7fXTp7f/CeD8d/3033719t8GpJ//Cw==);lineShape=1;strokeColor=#66FF66;" vertex="1" parent="1">
          <mxGeometry x="394.90873957262556" y="422.63121825808025" width="212.80830201981053" height="109.34043181644893" as="geometry" />
        </mxCell>
        <mxCell id="PvSx6Jm3aXQG6yqBhu4d-18" value="" style="shape=stencil(lVjbchsxCP0avzK6g57T9D8yE6f21I0zTtLL3xfVo80KeU8nbxsHJEAHOLCLd6+Hh5f9LrjXt8v5+/7X8fHtsItfdiEcnw/7y/FNv3bxfhfvns6X/bfL+f358fr3y0OTbF8/zj/bCb+vet6Tj00ruD/XXxw59++Hr1f50/F5LV8plUHeQ/nAVNIgH8iXbfmYqcogH4l5Wz5FkjzI527gTfnsKI/nM7kM5NWe8XyhELflSyAOg3wl54G8UE7mfE7b8qz+WvkI/GU11xt/I7BHEkkx8YzA3xoojPFM5MB7VbHxaQgEBtVKMjrgmbgChLoFwQvkEkWgoVdUHjHnKWOb8uhEchDV6nUZo5o0j0DaVLYKWY9APhQqow9Fw4RuKB33CzBw5tRMMt4gngq+IY+lRRSMINdqIh6dbkYKUHAUR/C1QAeA7mwfTp/SA7jy9NJNAbwDhx71lUkV3FDUpEkBPZwCIU0KGSkEitkqJOBD4hsmFZAPyRNPN1RQxWLpyFmFNYCH04S0PlSI1tYGxCowUNDGZhrhqpDc1kgUJicY4FtIoo1SRE5TMtjTdADvFmzd05T14HxHYkIUKYPzXUf+Iu97ldqQN/ZI7c1uQz6O/gpTAvGcqIumNypImgemdS4vuBF/03kkwj6ikJvkA/C3UC1WHnU2rZ7V2l9RxbatWUonYxvy1l+B71snPDtof7XxV/IggFtIj/YinyB+uDOPFf5RymdLvTS/EJeKvaat5AMo7aGjd2UPohXeUjX11wP8a76wjSfiaq4z0dV7oX68cJoVHjw83+KnkAft21M19SHBNqPZZ+RjJ/O325Ktby0fERe3o007H3H9T8r7aJuYBighhaknaUVECJ27niqgkjj3VVWoSGHq3A0UIClnbqAKCXSlmX2oAmqrM79RBUF5PxWWpoAK9RxWzDOVBZqpV5bivcUzb7wD4hILhVs114IVgumuOrmDKKlCHuHNiRKIkhrgRx+KwhvUR5kaTmaYQI3vj2FN0nvuloKZiiJmgU1h9EEzhLFJyew3MmSNDTkjlnzBXT/1+Xg1AAu4gXmamCvkgYpWVyYFUFj1XU3n9HhmKcEOm6qAJruso+AUJcTV2jw95oPSc0RmU7Ts1Id+59ZmKpgoebgKUj5iH87BXZBG3RnCA/mjHsemPZBA/lXt6giuFCwdwdO7losx1RjGf3n/pVjAIs+2i2S4FmTbpRRPIPI8ZT0kytzD/LHThFuHvnH7WJmiZBG7Z3Fwlq62TC9LkS3QxGnhi+bizy6I/yuvHx/b6Kfj6XRdZq//b7fX+tN18x3v/wI=);lineShape=1;strokeColor=#66FF66;" vertex="1" parent="1">
          <mxGeometry x="84.78660771975183" y="460.107422433661" width="56.84154058940908" height="42.584362866476795" as="geometry" />
        </mxCell>
        <mxCell id="PvSx6Jm3aXQG6yqBhu4d-19" value="" style="shape=stencil(7VnLUhtBDPwaX6dG854zIf9BFSa4QoAC8vr7aOKM2W3ZbTjlws0s6h1JI7Ueu4kXz7dXj9tN8M8vTw9ftz931y+3m/hpE8Lu/nb7tHvRX5t4uYkXNw9P2y9PD9/vr/d/P14NyfHr28OP8YZfe1xrLslABf97/yS71P8++LyXv9vdL+S7uBRX8skFIfL6urKSj04ikS/Op5V8cJ3pU1zr8H7viXx1NYB8aERe/dNAvjF7u5MA/smVyhcP/s/8/X0tX1wm+ov30x8ToB7gB4BDm2uJyue1g1RD/n6/fr94foDeQF4DxGUWEtUVOCHMSzkZQxkBkSdBMYBMbGgaZAUBiVxbbc4HoxLJmxpcTQgIJBFKda0ZLxUC0MA3NrDUzybVhtEMEJy3biVeSmXm7gLAgjspexmVGjE6VhdBJc4vMU6vLwBCVBrpVY1KJPiUgICBz+SDdBcCAirJB9EEWtcEqRyQnazvQVnJk2gd97o2ejianWBYLCnNsHxwfZ0ORWOPpYOLa/mqbia8nTGhW6C8nWYVO8jrvTODxfX1AV3Tkxigt9wEAf9Y6nikeidrkzsPbU0e4CQ9oZMTsrhoVKrsErwrCQGecVJDilFqDkSlWmb3cQD4WYCPM7dqvCaAxutbMw2APqG1QS8uIqAQo1XjVNEGz3oY73pDQGUn6MV5dGthRV1mvVxcXCb3MK4JwjvSgjhsgFhKM7pOAWJDAItW9TrGUqYlVwFeEMA4RlM+mhOEGN0OrdrChkJYSQGholsZTSoAczpS5h4ACI1Ag2+oBDaIE25DAZX8ObdCyR0pxTKuYeszUpTkQzNN+gCwBtHjPZxhDQU0w0t0DpAjbqX5cCxFA5vEZEb/IjRYtCoA2jeNVs9IwGMXoADGS8OJcEKmNiggGABrQd8POKTLApBZY1Jw4FYAm3BLnyXwAChzwDlVRWGCGxMR62XMTK8zF7NBOwEBEuiUBEavIQhg9UG7mRoRUIkNYkey18n3RAdXi1GJsIZMilh4lbUapmMdPEU6Po+014RuDgTlK5+uAs4ZRehgknBxk7j+2kHDoufQIx/PHAyJsRlinOoqzHqRDukaEUCphXZ60pBRPd1UDYcmkGfxpgbj3OYiuV87SQaqjx1VA41POwvzpYcdtgMlCTvNB85CZl0QaBW3+4g4V4dvXHjEuYl640aFv9+ubHQ6Ivlid0KBMtxowY08K/gfm9SPTep/2KSaHSHdpB5bjFbeMwqoFGdhONXRQb+lADoHNlxCSKQ7Qh1Yuln5MWYcI5HZ1XY2EpW5Nnnj6lUBsHkRPh0oADo6jaUzAA+9O81+lQ+w5eDdQcF2iy8Ix1y6ltcXcHkI7Txv8VRUvOs72Xl5/fH6Ue5md3e3/6a3/D9+xNNH+w+A8fIP);lineShape=1;strokeColor=#66FF66;" vertex="1" parent="1">
          <mxGeometry x="541.0684796753721" y="466.21901639666635" width="65.99601281427567" height="49.603300034510994" as="geometry" />
        </mxCell>
        <mxCell id="PvSx6Jm3aXQG6yqBhu4d-20" value="" style="shape=stencil(rVdJchsxDHyNriiuIHF2nH+4ynKsiiK5ZDvL74OJwskAo2lfcpPHbGLrBsBdvnt9fnjZ71J4fbucv+5/HB7fnnf50y6lw+l5fzm86a9dvt/lu6fzZf/lcn4/PV7/fnmYTk6/vp2/Tzf8vOI6pTaBUvh1/dCopT8fPl+PHw+nxXEh7uZ4CsR5+3xMVLIB5AQNxEosBlAy1bINSImStVAT1QoAnbINuXbqAJALtWIAXEgaAIiPgRsxsFCYMtsqRAqyDdAQi7XQ9EsAgDY8XgJA4TiTiHfpb+1vAlqgZqnBTJUBoFJ3WQqUADWaeJdqphC3AZ1JbOG0MgkUTgJJsIBAARROlHzWJdVPBWmV7F1KTAlZUD2wB2SgB2k3XOqAGtKJiw+6gMKJULVcUoWgLMWgWXR51b6DfBLq1kRRuqLKybhvBjAV1Mj6cHkGqGoRYGbzzL5IDVWuUHcAbUxAQcqNWD0gIDKpIm3QNYwrtvidrUZLowjI1MVb0G6ckeTEdzKVXACFmyysyNQR+wLVZAGRIiqclskJomPJZT8gVHJQ1HU06wUgohiYmrOgdUD07n7I6SQuKAYZZVrOXUQ+ba4urTzytglwXIqw0gooDlA/CtoD+miG/wlQfNfQEYT0MAnIZokFj6DiqdEjZVC4topBFSIIoE3FWpgaD0grV787yCza2wBVnM3SoqHf3jbq6FsLEx3kVXtv5JVPIAhtQ2L5LVhBufnGpDIPQBBTVym+ECjoVMaeOgMSzGtsfq9sBZZal2m2aeUO+0wf1y3pDRqZmrf3F119UQRjJi/6HlJD8CmNWgNAi9XaEAN8C+j9lhT9g+uLm7djFm1EG1xLheM8jtTNzlMHx9N4IYzjAa7b2VMhwFDL+nYo4PXtaJVnz3yNHdzeVrMJbrTNL+WVMhhMt160gPMfPoD1x7/H89PheLy+vZf/949t/XR9qOf73w==);lineShape=1;strokeColor=#66FF66;" vertex="1" parent="1">
          <mxGeometry x="255.7975703340685" y="428.8094846395445" width="52.38963756256203" height="21.10172622823393" as="geometry" />
        </mxCell>
        <mxCell id="PvSx6Jm3aXQG6yqBhu4d-21" value="" style="shape=stencil(lVjLctswDPwaXzEkwBfOafofmYlTe5rGGcd9/X2heqiIkLWZ3GSZKxDg7gLSTu7eDg+v+x2Ht8v59H3/+/h4Oezky475+HLYn48Xu9rJ/U7unk7n/bfz6efL4/X368O0crr6cfo1PeHPFVdIygTi8Pd6I1Nr/298vS5/Pr4sljfiOiyPlVrdXh+Fqg4AKdQSAFTSMABSpajbAGZKbcygUIoAUHyEIlRABIkUeAQopQAAjeJYpZopgQiWouQRYI8AVcqJwphDVYqyDSiR6ghogRhEsBRj9gDEjJpImweEAgBKYZV0AAfXxAOK0RFEaJXKSO6k8BxUvBo4UgMnrYnimHRUYgTIveoLAWVwDjqTeQFAVVJ73kqiBVRJG5Xoc0gMAOq3ZBqMaEvamTMDTA8oaSUdXYONLMBmDFBHiQr3rLYAwflS7grZqpI7aVN5QFWqfcczQEnQlsx51QNShuSrxW8JOZ/eMmNBOciqSqYQYALKVMUfnKItGWDUtNkzo5MW70tGvgaczwBtJVFFEVLvaAsBKUq6dEEuJYoUN3e0BQCeg/mcy6F1wm/R23UgMzLUHyYBOedLPebtPh2Cb0FsowCiq/a/ZzJFSqhMppfRKyV1tnwCgHwm+66YIwkmk4z8tsaq6CBCT3FuctJlvtWzeORGSx91xTZG0AgnLOu7bv4xAmcQwYYXdoAKcyjzLDIDGnQyK6Jr1AZQAMgrUU8EBoBUfEdZEPg2InYNL0Iw4Mbkpau6NlBXa1HikhBikATPQ+HMjUYZAebBdgYwJJPZShsjVIFTn833eYwwDdNoJvN+b4qrwI2zn/msKaI+bZOIc6UCG1DoPXnmRaIC1BM8KyJDn1y5pEJOBK+c2ifSjeXJVZMC3Iw6f4RzW6TscoWjKnvnCnDYlr7V9+VIjyvFB7h3O8XslqO6Z/8Cxp13G8tVXCErqPsnX7I/XG4X7+/zT8fn5+vngOX//v3fbl2/Hcj9Pw==);lineShape=1;strokeColor=#66FF66;" vertex="1" parent="1">
          <mxGeometry x="423.93020628461477" y="426.9344318443732" width="62.04395816737292" height="20.137109973596807" as="geometry" />
        </mxCell>
        <mxCell id="PvSx6Jm3aXQG6yqBhu4d-22" value="" style="shape=stencil(lVjZbttADPwavxJ7H89p+x8B4jRG0zhw0uvvO4K7skhJU+TNlne8PIZDUod49/Z0/3o8BPf2fjl/O/46Pbw/HeKnQwinl6fj5fSOT4f4+RDvHs+X49fL+cfLw/X76/10cvr0/fxz+offV5zPUvyECu7PvydFwvXJlyvg+fSyBARpWQECnjgCcNKTAsQkpVCA1zckGNn4DdqHHCR0AojiqgKUIKkSQJKsTSpdHLuhS4gKUNOI2yYgFClBA7okkocIH5oCtCCeAJKzTrc0jNwGFKnapJYlkExnuOgtIIV9AKLu3ApATCrVcgk+ZMKlCm7qKNUqjWR6+ln7gEzXtA9A1E2UipNIqAEXmwaArfSGOqI+10MaZNkFmIqrtKZbka5NCl0yyQO4GXVYwV9WQNWNvC5Vg9RD8TbTKKlOnM7RqoaH08SkVCUa5UNmSB5QQCaskIVAyBeRVx2lSXi4CDhzQ5BMnA6gWrWASEzq4qN1oRBmVJs2xMiTGM1CvTjviGQkq0lTSIk9iGi2/jIaeWlFn/fjxp3zWXOi04R5W/tVHLU+6ejkwdlt/kjVdR+lENvzIONcYlKZlkrv5jjT6mZdncm915NDNsZXFngvKZnY0BYebLlX8ez/URfafnRo4i7sMZKIJ6xbTsTS2cKVnUSoSzFUThJJqbRBrWVp0fwaOkylSzxGI23WnkxKPQ4hWIgbkx4kzNmAVjY3jsZ+Sxjrkjiu6VzpzBgGW250Y8USLZsTn7Wk6lyBCqwVfew4VN/Mio6KLKiQoznvWd+KdsR3dBRN61qhMpgw2RoqDC3aFjb0ZW1/pEwuWaK2n+8PNdlhvdFhpkWrVaByIQ50kNO0uTzoug0odvqZUkZM6n0YMAPQulnncs7qFdayyPQK9aevSKApuQIAb9YyzqNeV4A2MrkNiKNlzbN35U2s2TrGvN+Z6EarutOszPcHsyl2hJWN0k6yzkPnM0dJq43d8fpHFOvqCuY18hS6BdDR2NtuDAAdjVcbOJLP+v1tVFrE1bP2Uewo2joddbsVSeS+kcTlDSqx0ThI0SVd2lg1dxqaPe9pA3R2JcNGxDbdVf1jq2QLll8NdPPmu+OvEeGpxdJVwG5XdQjOzmpi3n9AhD09bwZY7+gq0NbzBxvWu5X4Nup6bz629KR/D+ea7VGsB/pZmxc9jZ2PQ9YWmw87n+yMwCVlangm/J6KFgB9teoFFqFiuwd8Yk12ukGrHJzqbMT88LvS/wPw4fZq9vH0/Hx9s7v83b7KxaPra+D4+S8=);lineShape=1;strokeColor=#3333FF;" vertex="1" parent="1">
          <mxGeometry x="265.75995261552157" y="406.6229036320831" width="46.18820571602873" height="39.243877985419886" as="geometry" />
        </mxCell>
        <mxCell id="PvSx6Jm3aXQG6yqBhu4d-23" value="" style="shape=stencil(lVhJchsxDHyNriiS4Hp2kn+4ynKsimO5ZGf7fXqiIi1iNO34poU9QwCNRpM7vXl5uH3e74J7eT0dv+1/He5eH3b6aRfC4elhfzq84tNOP+/05v542n89HX883Z2/P98uK5dP348/lyf8PuPUScwLKrg/51+CF03/fvlyBjweni4AIYn3MyBJctsAX8XNAFXRQgBBSp0AMYiLBOCkphlQJXFAcRMgZSlKAF7yvKWMNDBAsmktQUIlafVS2wzIklkdioQ5htIoQIPUeUsVW8rbgOh6XQcgSiBviElasQBWh6TimwUoSWv24ouNoRLy5SbLf5dZqj1vVwHIeoszAO8kMSwbmOmdVVIggCxJLfk8qUPFjuegYxPHAWmOYSllI4DU2T9aNPa8XQc4WwfQMRJ6F1R65lII0jwpXOlZHwAngXEpSptj8CAfyRLIF+ae9tAlQo0EFZq5BFmIbEu+P68DWk/b1nrT0lyVsL7M1EP3kCKk0Ssjp1Tq02jGvh5Cy/afLSucOEK7VC0p3lnfbIn5fqAWsdh4Sb1y6IS5yCdhEBrdmakghXQNnm/0EXwg+c9Dny8Jx17g7agFpQPPqM6Tc2kaRoliU4pJ5xjnktUivKGSxkdblmZjKCyG0Ek/AKFblK22idWUoTGh8F2ex0jgOVrRjnuFdQDgCUupWn/keZGTHTiuD5TNGmez3jFdbL2r3tazAfjR9csomONVaSTeAoKZmS+B5B8T3MiQHxW8DkDbmkGQKYOaSp4r8I4StVUJwFFHctRaV8KRo0Jti3ejqEPsIkW0ZtUdxGWN2bL1LYtgsiC8tYMwzZkZnSjO2EHfR8R1arTeuQMAySZvKGMCDK0Ym9wynHHmRotcs7X7oAEodOpgaiYzRWqfK9dteVtJsOMdHb0dtAu/SF412UmIPWUCCNUWAmxhooqGMV4HTcUq50v3ZgPgJPNDYTZkyvTIlq1bgysu7Ihn3RRMMbNrrk+N0T7cjqwaGn5MCfNWxzucmitJUOjpGxIDUjDP3592oWG0Yt4WAP4rkl6D9bCDEJOckcjZEuARjBOY3GU1GhLxFosDNABHFQlZsjEMHm51Tl0BCgu62ROt9/S8qW71Bk99tvqu0hcOrPKriLA6q7EbHgDSynayXtAVWTGiWZYAiMYJ1z7ltwCm3UA+JWxFlnSeDKAjo/eHr+b+A4APbzeB94fHx/NF4uX/9uYQP51vHfXzXw==);lineShape=1;strokeColor=#3333FF;" vertex="1" parent="1">
          <mxGeometry x="436.4468763698303" y="402.7254647582831" width="48.2627360281449" height="38.19609314266427" as="geometry" />
        </mxCell>
        <mxCell id="PvSx6Jm3aXQG6yqBhu4d-31" value="" style="shape=stencil(lVjbUhsxDP2avGpsy7bsZ9r+BzOEkiklTKC3v+/Zpg6xkj0Mb2GR1pasc1lv9Obl4fZ5u0nh5fWw/7b9tbt7fdjop01Ku6eH7WH3il8b/bzRm/v9Yfv1sP/xdHf8+/l2iVx+fd//XN7w+5gXJMYlKYU/xwe1S9J/T74c4x93T2fxUVKf45PEuh5fpNUpPpuEth7fxuojXpuUQvYTpNqUkFBAIAlJSp4TwnhyPaFJnBOq5Lgen7KUuaVRKumQZolzyUECKSDj/ebik5ETKKMfb/GdxNcqwe+/pfV4y9LcCfATrqLzCKlEUm8vkucRaqLkvHr3Ix3rmJG1BJsXwBEaqSCG0wmdSlDa096kpxkGVYwMUTep81CUPJC31qX/MDkDZmVtUmlzDRYo8nvyc2omja0AbmnzwXWKtJb8ZJx1+vqsdslzX5dOswTM5rxEz1LJQaDtjl86H2/AM7iqMa8c/46QWpHACKlLm48ajctk+jD/3a0Qx5PrCVnUrfAORyafYE0yY+EocW6rlYHCNZ7vM6otSWMgjeNcz+Y7sC6Bhpy0nUB4PQHE5BKgdmSWoCRpLrrmAcLrUhK9GiLBWEIeJZ5tqZAaFi27KJrJ56VAVw5qyHGcIYqDY0yGhOBmqQwiWduSTzBKAijaKSLGm5kYKJTNNQBAxtoaBjOeQ5QBCFTafUIiqovhi9VvickoIOpIwDptKwDkdNego1QWfQ2mVCCwgsMDINrZCslbn9qGZKwRWZ1rgLtRhmkTdX6Yk/Fivpw7zJQ1PpygAKSrwQZo1xSoNt/WRNoKh1gcRJUS2WIRXQKoknlE9ewNF1iJrceoORNnvEvLBuaisUmmD5h+d9KlD+O75k6c6cuFG131XgNST1fQAfmTES2Ul5DQZzLG/DIyRhPzhTcOZJYw/d5MQ6dJAvxSzj5BSdGYVkcCAC3z0hq8AiGB4WHRONdWpeYEKprdRyiIhyVgNNxXbuLc2r3slsgNFnri7H2mX5VwM64G45+hiz64BOU1JG90LfMagv8IgrCzLfULWqrU50L1LwSL2dyTFJyxWCAck70LwPuNvF890yOeEUb0Z4z+MHCGi3iut8Hf3cCJKdnPxVcudITdBHz0Lun9ePx4u7i63z0+Hu+9zv/vL7rw6HhJpp//Ag==);lineShape=1;strokeColor=#FF8000;" vertex="1" parent="1">
          <mxGeometry x="95.845518866058" y="502.96134113115636" width="31.842576986615768" height="32.703957760914136" as="geometry" />
        </mxCell>
        <mxCell id="PvSx6Jm3aXQG6yqBhu4d-32" value="" style="shape=stencil(nVjZctswDPwav2JIgudzmv5HZuLUnrp2xnF6/H2h0VARIGvV9E2WsSRx7ALUjh/eDk+v+11wb7fr5fv+1/H5dtjxl10Ix/Nhfz3e5GnHjzt+eLlc99+ul/fz8/j79WmwHJ5+XH4OK/wecVwotAEV3J/xTcrkxzdfR8DpeDYApwAxUWQAyNS8AjCT93CHogE+U8nrgChHYu0D+bpunyI57TNDl3Mgn5W9vAAe50YhaQegfUmUo7J3lN26fY3Eydg7YN8cpWbsGfjbCiWdgEoFrd8o6vNIQBPIsACyBnAlVyCgmAwHChECqg6pJLGBHbybYtgRkpaGt0gaUDMx8LqKE0GXhcOJq84W0keo71deoawrtSW4Q/Kdu5MTrRfLfXJKZg2AqQUQ2NJrbYqr+ADYzBR1lIqwH7B5KoSZfQAx8hTM+qIWIESOYtH2DHMgKdUpKL6vsGZvKrURg/jIeXTZSdIZ+uu1vzl19q3E09pHioAHbBtI5s69+2ptaSP2DdBmIY5yngzikylV628DFb1oHhJPVG8LcZR8VaTuFLW91AMizKJdSr1VxHnbzKSeI4yn0/4KX2D/7t7N7CtYP1Be8DcBfnlK0Z4/QX5lnd8i7Rzae62hJfQ3a3w0fWBi9Iq90Z9coeS6ns3JXgYu1Jn67DOrf6yHdcFH1PliV785f0F+P2vvqxVQIWQCB+JItdiIovlDZgEDkBRHNNC1hUYn2DPqPZKh4aBm27mH+QNkbZgdNGCYcDYAZoit2IdidxhaAyjs6vtMNgEcNaR0MlZGuwMcV5hY15JUbwE7yN3EaXGUcgwAEKvt9huXD7lLNC13G9cbAZhJc+MCJYBsblyVGBG0LBTG4SOJ4JoWjqdlcTEZjWHIuDiNBHNRAk0tsr01Zsy46G0etgDOhnXjSNy6Cv2j08Kv7D8TVrnIWinGiROACetGafzX7X0DIA8fHwtejqfT+K1h/r/9uCCvxg8T/PgX);lineShape=1;strokeColor=#FF8000;" vertex="1" parent="1">
          <mxGeometry x="549.2923590119494" y="516.4877594806528" width="41.6010187241086" height="24.048914676653112" as="geometry" />
        </mxCell>
        <mxCell id="PvSx6Jm3aXQG6yqBhu4d-33" value="" style="shape=stencil(nVnLchw3DPyavaL4Bnl2nP9wleVoK4rkkuUk/nv3ZIvMEJzpjXJbjdhDgAAaTcwlfvj2+OnrwyW4b2+vL78//HX9/PZ4ib9cQrg+Pz68Xt/w6xI/XuKHLy+vD7+9vnx//nz7++unbeX264+XP7c3/H3DeRXNGyq4H7cnTSW0f578egM8XZ8NIM2AKLkQQBVXZ4CT7c9TQBOvE6AmSZkCapsBTjLfQWeTVCVxQDaAKM1TQJxNUieJHWuT4CdAUXEc4N0MiOI5wIUJkMeTU6fjDIiixOmAuM6nlF1/xTHAS5lPKZWejseAKGFOjRSpDyFJnE2KTQrzIUsoM6BwH7Lk2aQYJHJAmncIVSrzoSwAeMUA2t/XAQhlUwJAic47+CKF79BmEvChJ/wZQOcdqpR0vj46KTMtRSnufD3SIBqDaF7ksX1fj/IkQStFajXrA7FHm807J46sr8uBOvHEHpB0MVknnvjbQJEzvahERqlu2DsO1FMSxg5tjhhyyN8BzDvAZyU51EblDkDprzgDmKTY0ooUPwB+3iHySgPAmTRVycwk7V1gEFjovegYkGzxgyKpScECQMIs1BVOz6eUkzSyA7qx6Z5oJJXQC7qxn50uSSqpfsWpm2x13cjj8qxLQ8/0lFDPhvFQsYntMFrfILDQE/4Y4KywqryhA5BnkxqvhwID5v7cMiXh7LuyGwCoDuLDyqpbhRAAyiUYkypvJKmfyU5+KiG+bMMAnwtRn/BA7XqqkrpwHOsTzQvUlglapDpvodWtXun7kxHPoGFCMN72WSRRIrWJtJ7tAR0oOc9i41UHyR7XvpRq17OUQ5cxOhgAxqge5+2tx4547LPlbABYGwHAdDbEoLIcwiGZKuBcgR2MrEUWMcEGp22YwaikbHCsRk+hDmg7F1/seiUWQSQv71eSF8neXjbuIn0w9JjuHFZCLK6zwu5Emch2ByFj5OsWovOUt3zP+j25kzpDwix1xjIi2/dX3s/U6sGtLsl67zrt7AufBAyAuDIFi3CxLuNIWcPExcxQBQD0kgBdY8g00Wv/drk0UXa026SFjND0Gf2mbIcjNfbIHAPWwDmpxGmoP9P0FRKV7IBLvrlaaKDcAvVnaqFoP4ZjrkiSZ1kBKcNOCfLOMHDWzjfH2R0XTRskk1yCXDSXkTSk/TFA+/xnAHL36rgRomfMPiRP1RoSwUxT7twtNsC7bi91IZk79yMAdFZHd25gACQD4JoWgLhMIjypOADMvAatjqU3dL4ZjhTazJF7RoFpL9kzGW8Up/YXHFfPcqbaRw1njGE1ObUf6/1cnZt4IOW8saSzIWD1D4AJQeCCarvyzi6gfbHpRRq8vh+ZMR5Gac2AGOhEODmrX1BsrB/GZi8ieAUTwrH2xN+NLllHhwFGwoD7M8kM9MM6O40LH0vVuAjbXPp14BRghtSejqkAMN2q5C78zgCm+RQeaQBseYYups8ARikpV6ogUeO0NkpJAPh3jQriwpJ1jPeOAX5R5/wbzAZ411ceNAJ75xkTyjOAGXji5s9MAm2ZOVVrNDVQ8lZCN9pxN2IPFsDGTuvsfzcGPUZEO0a+iwjL17A7Ri2T8Dtu+yH8/+PB+rrMPHjovL4zOf7XR8Y7APz495vml+vT0+2T6P7/9hsoHt2+n8aPPwE=);lineShape=1;strokeColor=#67AB9F;" vertex="1" parent="1">
          <mxGeometry x="94.93694169801779" y="481.2444572565564" width="32.97717906816888" height="80.94788111058165" as="geometry" />
        </mxCell>
        <mxCell id="PvSx6Jm3aXQG6yqBhu4d-34" value="" style="shape=stencil(lVlbchQxDDzN/qpsy7bsbx73oIpAtggJFcLr9shseVnJMz3wN9lIYz1bLc+JX329f/fl7pTC15fnp093P87vX+5P/PqU0vnx/u75/KJPJ35z4lcfnp7vPj4/fXt8f/n7y7shOZ4+P30fb/h50ROSOpRS+HX5oXWq7c8vby/yD+fHG/lG0ckz9Yjkczfy0igIknf2SKIUkHwVI1+FYkLyHK08UwT2COVm5ItQ7fvylZK1v0SqwJ5CKRv5LFSAPZmitSczpbIvr97Z93OD9iSqTl5PBO9PxMHKhxmBTfno86UeZUbyzv4UqOd9+UAlGflYp0c78sHaHxNlEP9AbOOvDQTEtTls+Ws0kbeNkn19gNnSYEcvH0D35kQxennQXSVTKV4e2COFuDv5BPzt7N/PJKDaujZfceEvoBt7n8df0xtJAFzFsBaEFhByoVOzLmtPBKxQLESoE+nACZs0TlSAE71Rt1XBMttiT8GVhRZKwXlwUcpXoNxWKF6hKNIAnOiRmgPShoF9idJAduBDq76WaoPQ1TKxxRadTQ3NsqXbROMGTJJO3Z7QIqwlWce3dizIg9Q5fadCDxNy9jo6Wx96xgOwUrctp9UlAIFHIdgGumnCPdRzQ1xbBBWTTmXXcqOngE0KQ7l6JwowSecU2zmlLYJ6VIHRx7USg2JSBXGZK7PitxV0kNmW08xF5HTx5arwjGojXanEVSFBdB24Vb0CCitr4tgrVESPwpYP4AQFOtdyGqUAopTzLLWbPATQELl4yqyZRpRNT2CXaZmp3POBl2rNKA99qdY+icS2QvG0cHQcACaOGwqoNNZFRBUyIqp5KW/FGVStccm0zBmz13HFjlFNnBwouOIrkJ6oSeLKO8MxOuijc5pnh+yF1fFVbSDktCYuLR2HTuBlgxkKiBKXrROAQrl28I3TiHQraxXrtJKDBopPdzo/dxkWX10y3QIc1MpFgtuDK6Qzdek4JRsIl5S8RBvWiieQBL/aVsURxE7S3LxuduGEdueFO+isR8u/xqRbEFBaiUaWiB+KAwtBWKX5ah3UGDOsvpJvFCXxYPy3B/ecLm7FTXA+aFiTdToKZDPCnrhGTL5VITqmSw1RuExt2YpB6Y2h2/37EdZXvxY3jNzF30ocbPVpQYyDa4MBxO4eI0zeu8coqz1hDDA0EHnjZiUip9lDPTN1dHXD1NzyrRiCxlXxZaGJbIgV143bLUhBxYe1RAgxo7esSQf3c2qSu5A8uABUhRVXEXKrQrAKB1eYquAyfXBHmqqfDQeXsBolZ9LBLa+eILY0dE1Es0FLw299YV5C7DVQdVwpThzcW2eaeIWOMh3mzL/hGQzyENvGdoJQIy7lfaTA/mLmyKSVs2Kn43IheBDWtkQV561NEvKPhfG/3xeO5fXh78eMD+eHh8u3kNv/+48f+tPlwwm/+Q0=);lineShape=1;strokeColor=#67AB9F;" vertex="1" parent="1">
          <mxGeometry x="564.3370549045706" y="497.2328063347113" width="21.05453249336233" height="72.22182461400394" as="geometry" />
        </mxCell>
        <mxCell id="PvSx6Jm3aXQG6yqBhu4d-35" value="" style="shape=stencil(lZzZrt3GEUW/Rq+NnodnJ/kPA5ZjIY5lyM7096nGBanDXbyL0tsdzmazq2vYNfT5UH7445cff//4Icc//vzy+R8f//Pppz9/+VD+8iHnT7/98vHLpz/tpw/lrx/KDz9//vLx718+/+u3n95+//3H/cn90z8//3s/4b9vuNVDyxuV4//e/jJWWG9/+dsb4NdPv70CWmhDAakAoIYhK8yQFwBKWOUKGKExIHcFRALkkOIV0EOuAEghyaZbqCSlGJrswcTQ3gfMFWZXQIYVDKB7KGESYIYyFJAjAEbo9QrIoYKUZg9TVkih0yt1J9YY1gCAST0poEwA1NCuUuorNDqHEsb14PoMkwD5eOMXAB5cDvF60n3wOZjyrSvA5NYBEFWsvYYFK5hBrnYFsGoYoIiUcigJACMMOYcUKngNM8h+9Ro9hkiv5PxSm4fjuQfUwwudgBEqrVBCv2669UNZ7gFZ99BaGHBwZi5D9vBwcDFM2UNBgGn/qgqIoN4GyPMKMCdAgBnaVb2b7QqcsWm/HlxEV2nan69irfaScA6m/RLj6una7gH5iDcnoIUF6t3PNz4BFf1SW6p8tYQCr2TKnGWFjOq9lXkqgELWVma3AkXRrcyyAtu0KXO9Kl81700rmAFdpVRWiCSl6AADQ1Y1H3ENKKUdQewe4GJcqYd7vgc0dZUlY0AxRVhXAyoWRQng3Ewx9gHaWl1AyRYUQUomdfFLeYYKmy5Tw242iwN72MfUFZAI4LQ198O13QOaMjIDTJBSqTcrEHUoJ/96AeAeTBGuBpRPk3oPEB2ggcWZ5pSlgEKAeDj3FwCFXdOcLoAaOhiQac6aCiDqYIogbiaXw7XdA4w6iPJlVG97AeHe2SwETtqet65eIy20B3uecL40Uaz2PLHp1A8GdQ+Yh9RfABHEmk6DPAENA7s9r151KZ1x9R7gyHoqmPjZv+WkUwoZdMn+Pa5incgclkYH5tFDWXFlqnTQnFOL0L80zRvKkdC983EJ5w2JXlUNnRzWjoBxSj6iJzJJiLZlZLbFqXNF9mKykPcZoZBFhnllFmZA9PysjHD/hbyWVhi2W8TPR3n+RFVLGmu25yZj1GC2gw9Z++EAz893JIM5JPk8609WgvDA7MoRSV+oI0XvqmHJWFIDeTprMRpGCW3XKLZ5HtUVDt96fn5iIDZtlLQrYtEsJZenpYOp3gOqSx0LZrNpahZlfJ5SluzIh6UYnQJ3P7j6awoPh2ZSmlepWiJWQetM6ZOUISoem5FAIR+WfUbyQ/PY4kv9iNiK6XGWolliT1rV1EbllGVoFjXGEdfeS4o0FkSOTFUrhbOg9ZsitKtYZ0cSaIpQr8o3Jxb+TBHWFbAiVjt7U/VeGRPsXYa4uvhVUL13KeUa7xfzoZFVSqtxwampxa2O2mqKkB2gUlluHVHpBUA00zRHasIGwKpzUuXbACpeFqXKTytUdTOLy3KzatplgE6Apk7ga9fkvcq5f6VCmx4HmXsF0CtNLUM8AZY2VR5eaduXX4HIddLK+QaAlNbp3F8AmV6paF17A0C9DTDdORANW44HbwDtoWlg3yZKRGAos7VHLOpVjTCjAsiA1lRuZbsi37pcjFvchdkA8d4D47RfwUyKHNnew9W3muMhfrhXKAogwmcA0dbBNTADiIkaAE966UmPiRTOAFIpHBP9kgEkZO0VSJeWphk7AAA5MYDfNGbYSwmWnQOxmRTPts6JSFhQXc6TfY0x7wGEVs7MZN0VX3aTj8UklQ6LYpn0+xT7twKmFoWfXmlqLWVmjFnbgtp3idXb6MPBeS/AurEB1xWetG+qv3/W7+hM7sGCdNTg0UYlE332An7TD35GJwcePNlyusS+8s5G2R1/P+LGcTRs9dzsYjxu+2rVxlgy+zJlQOXJbwzH4pA9LE0WTYORMk2XQixsuW32MBRAGbLnJy9n+a0U6DyabyVZC9PLGxpnANq1J4oLk/AbKrowh7ghuwsz3hs6vbAHfUPYF2cpPiUwwPclHY8ATWseXsknTuvo831rarY4cfLJ30Kjvkkv11GAeTeBdVKiKtZOkcXPTGT4X+fnXgDE8Hea79wGVa93IcGtQHFxlyrk4Ab2PncxxCVOpEvdNXy/+pH3CjrRlVtIl7qrSZuVLxoTiRrbzcqpyL9HLITQTOyCtKqN99kw09qTMNeT3rSP2j5ONQZ7vj1tICN4HcNoda3MPXdINdfp6pU8JrInMKSquw5/fg/Id1Vd6hYt7X32iuMJual673k3aosnZSdtIZtOU8c5TbuI66aqlbjWcK4kJc0ITB2pu7q0R9YyFuKGzvm2hOXN7ubvInasm/bU6sSQW3Q2bhsH9rDE0dd28I57gbr2MA8yJK211ox1++h6ZBFTvqjPL2w2jqKXftT93/u89AQLeop4SPv8fETWFt3MEGdKUZv/D7MtyfVkeZIxaRckP/TslP2n8dBj1ZkQ7lFmN7CR8bxccyxFDJhF5zAnTt0X53TxtKpmLpWHCw9RnC+PI21dQ/fDsLDyoYiaMP3L0HDB8pMdlEvYMUaZvuZZgaptocl63NQxmyLQeFPqWnLecziw4eQyiQfVTC5XSTz+mpbO1pkUiMHmpPOyJgaM2OVI1U9A55GQ5mZgBnKz7MXKVwv2lIF4iMVTMFNHkLbcmAhN5+OIhZsLlzr7FjSxv6SZhAEouTEyJ8a2h1F4CMD7dap0GkBmK3bop027rNSUhc7BGKykgNsFEKC7FSrPaQ4tvu4hRtqDa5Ds0VGSkiuXmf6SiVpiIO0Lc7PkBPYAu+xholj3qISswOUEI3CifCXihSRjiGJxpr90G84oqBzcJkVEYl0dyLSLWN0m3QLoWDU3Vq/j4OMYiL0HuKEYUxYcy++aDe2xfNrD0DqQAYhbtKmZtXFfnI5cbkCMZ1x6VCdQOaj3rF0kS52pQG0ppfBT01+aW+7uKqbpLw1jWJYr51Afii6uh2kKTyfd3XS3Aai2O6K718I3BXYtQDa9nqZo8nXTjW87jKJkrz1cPasOwPceDSAtm32piutxpSmATnq4Ubo9o8UlQkkGW+PbcFMLR2a0lO2MpePg+74d3d2MSrDawhnO6Ubp+nnd7R6QddNmtNQ628U0ARTMG2bRBroBqHA0Xa/D3AJZ3GzHuZ6AxtdJu/Kl3jCgGEAaC+Z4qA4xh7sSO45U/R4wtefZJzKBudQeOhPdFZXd98Xt8OjulEfu17iJ6e2p+E65XLXZt6W5SaVXxAuymVWPW44noGInYjX1GgaY3MqTyuu+VUubdnceRue7/Y46GICS1+VS9cETiruBeXUzY3AjeegshgEeeqrZrYD9Sw94aPMO7RMMbizcbHphin8jVr7BtA/OrYCzGF41uAL+tWH0CiCxfvdXVzwD7Iev35Tx86dff337oo3X/+s3a9if3r6Vo/z1/w==);lineShape=1;strokeColor=#336600;" vertex="1" parent="1">
          <mxGeometry x="-246.90200237636532" y="388.6808118671056" width="378.57114581566975" height="115.63726346308431" as="geometry" />
        </mxCell>
        <mxCell id="PvSx6Jm3aXQG6yqBhu4d-36" value="" style="shape=stencil(lZvZkhzHDUW/Zl4rcl+etfyHIkSZE6ZIBUXJ9t8b6XH2VF10nw6+DZuJyg24AC6QL/mHPz/+8seHlxT+/Pb1yz8//Ov1128fX/KPLym9fv744evrN/vrJf/0kn/47cvXD//4+uWvz7++/fuPX9bI9dfvX/5eX/j3m1w4QllCKfzn7Yc8j9T/98vPb+M/vX6+jC/pOr4cudD4nq/jw5Hh+/GI8TI+lWMOGp+v61kzNhrfruuJ7cjh8fh0hHkZP49WaXiul+ENTyfttd5O50iw2byv5rb4fVp3h5cjXtdulw1brUftMjzPx8P70YYs5v9Xff/gw9FEc44On4/lCE2OssJRxr716v2mSBFsd0nWn45KAukoIlCODqq8zv+qy0vX4IjsBrLM0PcV3hdoR8kqUGiGflQnUBMIjGNEFWhwSmbepalAh3vLdqzTCcCmDXBGV4EBe8i2YplhbNS7bzdhn8lJgHSvZDWdODcQ3BdoajwLtsA2y1TcMnUknK5JgXepI+yh1qPLktoR4Vjr3GhyExhHBNVoSVXDlCXADM0WcF1SNviGU+r2vau25nwEOKWeddOmXYVAz1BGZmD/McwerqeUxwa2+wK2YlnSPAbNUNUFlog3PbrikglMmsG0/7qkknYYcF9gbpM/CVS4h2nan5wAuLZpihBVgLzVTAqVJpDgHmbe2n8SIG87zb7cDAQzs27tPwlMOqWm/r+wTc/uZihoQCag91B4SUMNqNStLPcFptOljkuKISjOGLZRSGhTzKtuNDNC2sTUTbSyP/FIoF2X1MxGeUmCAr3sOR8JpKsF9XlE3oOESwYkFVyQ3dy8XvXCBb7qJgFWfiYgSGa/oMn5EG6iZ5+36PrmdwPHuGakY+oUiaYwXbtG9LbKSZsIO0G4CXDUZ+gqQGOLpBRpuEDdFpkA+0wTJBGwRUbQvhHV5AbfnCmnpJGj7YDlkR+NMkPd8HlfoB7patS2q0GeOm+/fBNImBD0uB3ITSDuKO1+eGIoIJsO2yvdFxgKx3ZulHJYAFSvutQHusVW9aZ75z3krcwngQiwYUGcJAS9YbjeotqDCRTadNix9kmAcKZOTbpNWRpFrkMDIEPjCZuu7RhFBRIH02Kipo6UZ9WyMeIkEMAeanZ7SGhxNW4PdRKgQLQGt4eIqFG8z7Icm5KarpmcmRQFcZY2SWJmJkWbLg412sCkxjK5IaxDR2xdcerV4hpTPsUxVma0mFyGncKcohOCmew8uwlEuAdLkIeEM6ytlvNIcmmwMCnJr5rvmgA5xVxchBU3/XJfIO8Q7xT0Vdp0Uv9gOFIABCz3lAjLcCQTYTT1lKrpEpGHQz2QAQ9l1Mni+yvyGfAEOKVU3ZLKTpkfcVii3gY8hHwpq8uqNwt5RKvJTS+kIkY2btbtJEAuK4WdwtwEAobGixosKkDIF6fiUuF8IA51KIvggXswAU0uJwLZokMlz2IOKzb102VgRBbrJg1OmRxFM9GBseE5ud1YNBIwgUybzhrdl4rhT8x608tj0JIc3JeCYWg02IoqQKRXvMHWTSAzjXAMRztQiWIqR7Z4DYq8tUZhHizBBjznELAw0HZmcRpPGFYVL/LcR3zff6rrMf/YyFcpd2XjsS6gznN9HytQ040nyjG4GhFT9i58tvHEgYbtxE6MJuV6DhxzxSJFcCRuRkopKEqYp+64X/Hj5qiJa3QFihzQXsK+zTNrjeMFg94t9IE+SPr/hBWPminYeHKwUesrOaK+RWdfnFhEV9fL7PuUAFz6Q67P3VdDfYta18v9yXlKeL3sC+KPoHi7xsN+gzLVNp7tq7gKA+uzkMK5PhkvFMGq4LP9yviM/iIonpu+TRyvBZKw85dH+DZ1fAL9CZtCPNsjuXiNqdNEMvh7xyf1j7b+gePVv0SMB7LzF0/Sdi1r54j6UB3+JMwu286qTvpDGUTfKc9pfIf76spgmT5TZDydP2LyZ+7M9mRfGKqHvdyTAVMxODqGbCEK9cgkrdI8CVEszJXEMk9M+6JrXcjMVK5WCMkeAvImlgyI2VtYiUtqmn6bAJXMTUDyxMKcw2qFqCowaNNDXc1qBKAca2gxYRXw6KanOtdVwOPUVbjQwtGZb7gyAQpXVvzqsji6h9XkJDlWx4DCEEx49cIRtQ/xLTmu3GgjPtwS/Cd9M1EYAQtLiAYZGnXVxAIujasZa+zvqH6icqhslJO27tXKHFx2zAz3OhiQCi4twotIu+qonIGMsSGpVB9MgKpx2VHMdWI2schT4XMD0oKGc+KvWsT4qLg6U0uY8K583pGnFGEbConLahlDjEV6yB6YYl5EvCypMq/eFflMgKIws2AJM1rDtL26umtjOsosWE+J+dxVcqkqQKz3Mkg5JW4LM4MU5Ft9BTRDUzDuAWnyVfqSKlDE6K1OTUdMoFG9L6hq9ISUWru58ZMA1izT1pybQEbla0UpLxMgD2S6KTnVqvfRDE3b83rF4toqBUuhtu1f7gtMxdZVqCXaLmrc3QfGGqtgLpueR3pSkpeCeUCH0rumkiOin149L1Jh5w6p4aKZUbBgPnyXwJN+vqpdMKs1gts70vXiZkDVWL1w102vZjfqs7lVim8CCUO4WRT57BMUnMymp2QCVOScXUls2wORlqvx7IoadtDY+tN1D6YadA9zaMdJ50bM1azkYOZJR5WkNGbl1HFiAtKN3bg2sFqwJMCaCJVLwFcUqU1y3KnGYbtTvyOA6XdTfnR5bu56DK58R1VRU2+tWAyeoWj3UuE2+umaL1Yli5bku0+5a+ZOf2vDnpaFGk7gWY9uUgHyD8Np68oUSaC7jL1i+DOqWpxlu0Strl5pVysjbundQZ1IBCJ7e9cl5YnPGbovH3Wkl8yxS3V68b0UnDQtBecnsUZyDGvGftjqGkhyxHRgvR2QpwATGSxLhqWokrgLuExtRlqtDNQ14yKy9+dQj5ImqZst5hX2UFyhNnEel92LqcTH6l+6rGIIZezuLU2K3NPiimGJ22zWe6CgAmRA68VRdAJEdzdNmlbFi2aoGpy8U/6P6CJ9uBK4CSZpiXS9B2IWTjiB2PBYY9ei6mplIGIwaz4dA+ai0b1pGmihXassndsRHR/A5JXyPpyq5ztP9fDCtOSz+m1IIzTHXSpCpOl2lCf0QobfPYJNyGVE98i2PSnZSoT0xKvF72wBCY7yTUjIBgWJ1cKC45W/zfuZ1YPx2heUN2g8GK89OPzONmhiu9aP6xFSpXDPW9Dk/8lLoaAJnt1vwRK1hkUBORs3Ps8nLRrf+2j82Xj74/2F+m+vnz69PXA//7++aLef3l7D55/+Cw==);lineShape=1;strokeColor=#336600;" vertex="1" parent="1">
          <mxGeometry x="546.8450689554047" y="477.8161964229132" width="389.5078215116864" height="72.26394343143443" as="geometry" />
        </mxCell>
      </root>
    </mxGraphModel>
  </diagram>
</mxfile>
